<?xml version="1.0" standalone="no"?>
<!DOCTYPE svg PUBLIC "-//W3C//DTD SVG 1.1//EN" "http://www.w3.org/Graphics/SVG/1.1/DTD/svg11.dtd" >
<svg xmlns="http://www.w3.org/2000/svg">
<metadata></metadata>
<defs>
<font id="static_bold_italicbold_italic" horiz-adv-x="972" >
<font-face units-per-em="2048" ascent="1536" descent="-512" />
<missing-glyph horiz-adv-x="450" />
<glyph horiz-adv-x="2048" />
<glyph horiz-adv-x="2048" />
<glyph unicode="&#xd;" horiz-adv-x="2048" />
<glyph unicode=" "  horiz-adv-x="450" />
<glyph unicode="&#x09;" horiz-adv-x="450" />
<glyph unicode="&#xa0;" horiz-adv-x="450" />
<glyph unicode="!" horiz-adv-x="577" d="M174 58q-19 56 20 116q55 70 138 74q81 0 105 -62q20 -56 -17 -116q-43 -69 -127 -76h-14q-83 0 -105 64zM283 502l180 852q7 38 44.5 65t80.5 27t67.5 -27t16.5 -65l-180 -852q-9 -40 -45.5 -67t-79.5 -27t-68 27.5t-16 66.5z" />
<glyph unicode="&#x22;" horiz-adv-x="747" d="M324 973l84 391q6 34 38 58t70 24q39 0 60.5 -24t15.5 -58l-84 -391q-8 -34 -40 -58t-71 -24q-38 0 -59.5 24t-13.5 58zM635 973l84 391q8 34 38 58t68 24q40 0 62 -24t14 -58l-82 -391q-8 -34 -40.5 -58t-71.5 -24q-38 0 -59 24t-13 58z" />
<glyph unicode="#" horiz-adv-x="1355" d="M113 453q0 44 39 76t90 32h184l131 297h-154q-37 0 -61.5 22t-24.5 56q0 42 38.5 74t88.5 32h199q132 292 150 334q13 31 46 50.5t70 19.5q47 0 74 -35t6 -80q-54 -118 -129 -289h193q106 235 149 334q13 31 46.5 50.5t70.5 19.5q47 0 74 -35t6 -80q-54 -118 -129 -289 h121q37 0 61.5 -22.5t24.5 -54.5q0 -44 -38.5 -75.5t-88.5 -31.5h-168l-131 -297h135q38 0 63 -23t25 -57q0 -42 -38.5 -73t-88.5 -31h-178q-111 -235 -146 -316q-37 -73 -118 -73q-43 0 -69 35.5t-5 78.5h-2l121 275h-193q-19 -41 -70 -151.5t-75 -164.5 q-16 -32 -46.5 -52.5t-70.5 -20.5q-49 0 -74 33.5t-4 78.5l123 277h-137q-39 0 -64.5 21.5t-25.5 54.5zM606 530h234l164 359h-236z" />
<glyph unicode="$" horiz-adv-x="1009" d="M139 309q0 69 39.5 108.5t91.5 39.5q40 0 60 -32t20 -106q0 -101 76 -118l104 497l-14 11q-44 26 -59 41q-148 118 -148 278q0 154 108.5 262.5t270.5 145.5l8 39q7 38 43 65t78 27q44 0 70 -27t18 -65l-8 -39q112 -27 180 -100t68 -179q0 -69 -39.5 -108t-91.5 -39 q-84 0 -84 123q0 79 -76 102l-94 -442l59 -39q86 -56 132 -138t46 -182q0 -89 -34 -165.5t-92 -129.5t-129 -88t-150 -49l-14 -63q-8 -38 -44.5 -65.5t-80.5 -27.5q-41 0 -66 27.5t-18 65.5l14 65q-114 30 -179 115.5t-65 189.5zM512 1057q0 -80 76 -152l76 359 q-152 -72 -152 -207zM631 190q72 26 114.5 83.5t42.5 140.5q0 106 -75 159z" />
<glyph unicode="%" horiz-adv-x="1343" d="M256 30q-24 42 10 93l959 1307q34 51 104 51q53 0 76 -41.5t-10 -91.5l-957 -1307q-21 -24 -50 -38.5t-56 -14.5q-52 0 -76 42zM301 1120q0 85 51.5 161.5t134 120.5t170.5 44q104 0 171 -67t67 -167q0 -130 -109.5 -227.5t-246.5 -97.5q-103 0 -170.5 67t-67.5 166z M496 1147q0 -40 21.5 -67t57.5 -27q47 0 87 41.5t40 93.5q0 39 -22 66.5t-57 27.5q-47 0 -87 -41.5t-40 -93.5zM741 221q0 131 109.5 228.5t247.5 97.5q104 0 170.5 -66.5t66.5 -167.5q0 -130 -109.5 -227.5t-246.5 -97.5q-103 0 -170.5 67t-67.5 166zM934 246 q0 -39 22.5 -66.5t57.5 -27.5q48 0 88.5 42t40.5 95q0 39 -22.5 66.5t-57.5 27.5q-48 0 -88.5 -42t-40.5 -95z" />
<glyph unicode="&#x26;" horiz-adv-x="1122" d="M88 276q-5 97 33 188.5t109 173.5t159 128q-30 44 -49.5 77t-39 89.5t-19.5 107.5q0 104 65 198.5t170 151t219 56.5q134 0 220.5 -87t86.5 -216q0 -73 -40.5 -113.5t-92.5 -40.5q-41 0 -60.5 29.5t-19.5 95.5q0 63 -38 105.5t-97 42.5q-75 0 -137.5 -61t-62.5 -136 q0 -77 79 -188l299 -435q23 26 68 71t59 60q40 37 91 37q57 0 74.5 -51.5t-25.5 -97.5q-31 -34 -87.5 -90.5t-74.5 -75.5l100 -152q17 -21 13 -47.5t-19 -50.5t-43 -40.5t-59 -16.5q-49 0 -70 30l-80 115l-39 -33q-122 -101 -305 -112q-217 -12 -325 121q-57 70 -62 167z M297.5 360.5q-6.5 -60.5 21.5 -110.5q25 -49 78.5 -68t118.5 -8q96 16 160 70q13 16 41 39q-22 32 -58 93.5t-59.5 98.5t-58 70.5t-68.5 38.5q-41 6 -81.5 -26.5t-64 -84.5t-30 -112.5z" />
<glyph unicode="'" horiz-adv-x="452" d="M326 979l80 381q7 35 40.5 60.5t71.5 25.5q41 0 64.5 -25.5t15.5 -60.5l-80 -381q-8 -35 -42 -60.5t-75 -25.5q-38 0 -60.5 25.5t-14.5 60.5z" />
<glyph unicode="(" horiz-adv-x="630" d="M143 106l258 1207q31 147 159 250.5t280 103.5q38 0 63 -23t25 -57q0 -43 -39.5 -75.5t-87.5 -32.5q-65 0 -122.5 -49.5t-70.5 -116.5l-258 -1207q-14 -69 22.5 -118t100.5 -49q38 0 62 -23t24 -57q0 -42 -38.5 -74.5t-86.5 -32.5q-152 0 -237 103t-54 251z" />
<glyph unicode=")" horiz-adv-x="630" d="M-8 -170q0 44 38 76.5t89 32.5q65 0 121 49t69 118l256 1207q15 68 -20 117t-99 49q-39 0 -63.5 22t-24.5 55q0 45 38 78t89 33q151 0 236 -104t53 -250l-256 -1207q-31 -147 -160 -250.5t-280 -103.5q-38 0 -62 22.5t-24 55.5z" />
<glyph unicode="*" horiz-adv-x="655" d="M275.5 1213q-10.5 30 5.5 59q17 34 52.5 48.5t69.5 2.5l93 -31l24 115q8 32 39.5 55t69.5 23q36 0 57 -23t14 -55l-24 -115q71 20 104 31q40 12 69 -2.5t34 -48.5q3 -29 -20.5 -59t-57.5 -39h2l-119 -35l51 -99q18 -38 -14.5 -81.5t-83.5 -43.5q-57 0 -68 33h2l-43 84 q-36 -34 -83 -84h2q-26 -33 -78 -33q-50 0 -66.5 42.5t21.5 82.5q22 22 49.5 52.5t42.5 46.5q-18 6 -54 18.5t-49 16.5h2q-33 9 -43.5 39z" />
<glyph unicode="+" horiz-adv-x="841" d="M209 660q-14 45 22 89q35 43 95 46h149l35 159q7 40 42.5 67.5t78.5 27.5q44 0 69 -27.5t17 -67.5l-35 -159h149q64 0 78 -50q14 -45 -21 -89q-35 -43 -95 -46h-150l-35 -159q-8 -40 -43.5 -67.5t-79.5 -27.5q-43 0 -67.5 27.5t-16.5 67.5l35 159h-149q-64 0 -78 50z" />
<glyph unicode="," horiz-adv-x="409" d="M-23.5 -248.5q-13.5 34.5 15.5 84.5l108 170q-24 5 -35.5 27.5t-11.5 48.5q0 57 50 98t116 41q52 0 83.5 -30t31.5 -76q0 -17 -4.5 -31t-13 -30t-11.5 -23q-21 -37 -160 -254q-15 -27 -44 -43.5t-62 -16.5q-49 0 -62.5 34.5z" />
<glyph unicode="-" horiz-adv-x="784" d="M205 612q-12 43 21 82q31 36 83 39h443q58 0 71 -47q12 -43 -22 -82q-32 -37 -84 -37h-443q-56 0 -69 45z" />
<glyph unicode="." horiz-adv-x="407" d="M70 90q0 56 50 99.5t111 43.5q48 0 78.5 -30t30.5 -74q0 -56 -49 -98.5t-111 -42.5q-47 0 -78.5 30t-31.5 72z" />
<glyph unicode="/" horiz-adv-x="849" d="M12.5 30q-23.5 42 10.5 93l913 1272q36 51 104 51q52 0 76 -42t-8 -91l-913 -1272q-20 -23 -49.5 -38t-57.5 -15q-52 0 -75.5 42z" />
<glyph unicode="0" d="M174 354l156 727q31 151 163 258t289 107q155 0 243.5 -107t57.5 -258l-155 -727q-32 -152 -165.5 -259t-289.5 -107q-157 0 -244 107t-55 259zM383 354q-15 -73 23.5 -125.5t107.5 -52.5t129.5 52.5t75.5 125.5l155 727q15 74 -23.5 127.5t-107.5 53.5t-129 -53.5 t-75 -127.5z" />
<glyph unicode="1" d="M176 80q0 41 38.5 72.5t88.5 31.5h148l188 887q-66 -62 -96 -92q-33 -33 -88 -33q-37 0 -60 24.5t-20.5 61t31.5 66.5l331 315q29 33 86 33q41 0 67 -27t19 -65l-250 -1170h132q38 0 63 -22.5t25 -55.5q0 -42 -38.5 -74t-88.5 -32h-488q-38 0 -63 23t-25 57z" />
<glyph unicode="2" d="M118 49q-19 49 15 92l600 715q137 151 137 262q0 61 -36 102.5t-93 41.5q-68 0 -129.5 -54t-76.5 -129q-8 -37 -43.5 -63.5t-79.5 -26.5q-37 0 -61.5 22.5t-24.5 53.5q0 90 64.5 179t171 145.5t218.5 56.5q134 0 219.5 -86t85.5 -213q0 -46 -13.5 -94t-27.5 -80 t-46.5 -79t-45.5 -63t-50 -59q-9 -11 -13 -16v2l-477 -572h385q38 0 62 -22t24 -55q0 -44 -38 -76.5t-89 -32.5h-561q-58 0 -77 49z" />
<glyph unicode="3" d="M154 291q0 75 37.5 115t89.5 40q81 0 81 -124q0 -61 39.5 -104.5t98.5 -43.5q68 0 129 53t76 125l38 187q15 75 -18.5 126.5t-101.5 51.5q-24 0 -56 -8q-38 -12 -68 -4.5t-44 32.5q-11 23 -4.5 54t26.5 57l361 399h-267l-8 -41q-13 -59 -63 -82.5t-92 1t-35 81.5l28 135 q8 38 44.5 65.5t80.5 27.5h537q56 0 74.5 -50t-17.5 -96q-64 -71 -199.5 -208t-195.5 -203q141 -9 198 -108t29 -230l-39 -187q-32 -151 -164.5 -257.5t-287.5 -106.5q-134 0 -220.5 87.5t-86.5 215.5z" />
<glyph unicode="4" d="M133.5 303.5q-22.5 39.5 3.5 85.5l570 995q18 26 49 44t59 18q53 0 76 -39t-2 -86l-498 -870h215l27 131q9 38 46 65t81 27q43 0 68 -27t16 -65l-27 -131h76q37 0 61.5 -23t24.5 -57q0 -43 -38.5 -75t-88.5 -32h-76l-39 -182q-7 -39 -43.5 -66.5t-79.5 -27.5 q-44 0 -69.5 27t-18.5 67l39 182h-358q-51 0 -73.5 39.5z" />
<glyph unicode="5" d="M162 272q0 74 38.5 114t92.5 40q80 0 80 -123q0 -58 39 -93.5t98 -35.5q69 0 130.5 53t76.5 125l61 285q15 74 -23.5 127t-107.5 53q-61 0 -112 -35t-78 -98q-15 -31 -47 -51.5t-68 -20.5q-44 0 -69.5 27.5t-16.5 67.5l135 636q8 38 44.5 65.5t80.5 27.5h496 q38 0 63 -22.5t25 -55.5q0 -43 -39.5 -76t-87.5 -33h-414l-67 -315q65 67 194 67q159 0 246.5 -102.5t54.5 -261.5l-61 -285q-32 -151 -165 -257.5t-290 -106.5q-136 0 -222.5 79.5t-86.5 204.5z" />
<glyph unicode="6" d="M172 352l154 727q32 152 164.5 259.5t287.5 107.5q93 0 168 -31.5t116 -99t21 -158.5q-10 -34 -34.5 -58t-54 -31t-57.5 -2.5t-46.5 29.5t-18.5 64q0 55 -34 78t-99 23q-68 0 -129 -53t-78 -128l-45 -217q38 38 88.5 61t96.5 23q157 0 246 -106t57 -258l-49 -230 q-21 -99 -90 -183t-166.5 -132.5t-200.5 -48.5q-155 0 -242 106.5t-55 257.5zM379 352q-15 -72 23.5 -125t105.5 -53q70 0 131 53t76 125l49 230q15 74 -23 126t-108 52q-72 0 -129.5 -46.5t-75.5 -131.5z" />
<glyph unicode="7" d="M262 29.5q-22 41.5 0 81.5l608 1136h-315l-14 -73q-11 -51 -61 -74.5t-93.5 -3t-36.5 77.5l35 167q9 39 45 66t80 27h541q52 0 73.5 -40.5t-2.5 -80.5l-673 -1260q-18 -30 -49 -47.5t-64 -17.5q-52 0 -74 41.5z" />
<glyph unicode="8" d="M170 324l35 168q15 70 63 140.5t113 121.5q-43 53 -61.5 122.5t-4.5 139.5l23 100q31 147 160 250.5t282 103.5h19q152 0 237 -103t54 -251l-23 -100q-14 -69 -62 -139t-112 -123q41 -51 59.5 -121.5t3.5 -140.5l-34 -168q-32 -149 -161.5 -253t-281.5 -104h-18 q-153 0 -238 104t-53 253zM377 324q-15 -69 21 -119.5t102 -50.5h18q66 0 123 50.5t72 119.5l35 168q15 71 -20 120.5t-101 49.5h-19q-66 0 -123.5 -50t-72.5 -120zM522 1016q-14 -69 22.5 -118.5t102.5 -49.5h19q66 0 122 49.5t70 118.5l23 100q15 71 -20 120.5t-101 49.5 h-19q-66 0 -123.5 -50t-72.5 -120z" />
<glyph unicode="9" d="M182 287q9 41 43 67t71 28t66 -23t29 -74q0 -57 30.5 -83t92.5 -26q69 0 129.5 52.5t75.5 125.5l49 226q-40 -43 -92 -65.5t-101 -22.5q-157 0 -241.5 105t-52.5 257l49 227q31 151 163 258t289 107q155 0 243.5 -107t57.5 -258l-155 -727q-32 -152 -165.5 -259 t-289.5 -107q-68 0 -126.5 19.5t-101 56t-60.5 94.5t-3 129zM489 854q-15 -75 22.5 -127.5t106.5 -52.5q73 0 131 47t76 133l49 227q15 74 -23.5 127.5t-107.5 53.5t-129 -53.5t-75 -127.5z" />
<glyph unicode=":" horiz-adv-x="413" d="M80 98q0 61 54.5 108.5t119.5 47.5q53 0 87 -33.5t34 -81.5q0 -60 -54.5 -105.5t-121.5 -45.5q-52 0 -85.5 32t-33.5 78zM197 651q0 62 54.5 109t121.5 47q52 0 85.5 -32.5t33.5 -80.5q0 -62 -54 -106.5t-123 -44.5q-51 0 -84.5 31t-33.5 77z" />
<glyph unicode=";" horiz-adv-x="395" d="M-53 -243.5q-21 39.5 6 89.5q15 26 49 80t49 80q-20 27 -20 66q0 59 51 104t117 45q51 0 82.5 -31.5t31.5 -78.5q0 -40 -26 -76l2 4q0 -1 -1 -2.5t-2.5 -3.5t-2.5 -4l2 2q-4 -5 -17.5 -27.5t-52.5 -84.5t-90 -142q-15 -28 -44 -44t-63 -16q-50 0 -71 39.5zM150 651 q0 62 53 109t119 47q53 0 86.5 -32.5t33.5 -80.5q0 -62 -53.5 -106.5t-122.5 -44.5q-51 0 -83.5 31t-32.5 77z" />
<glyph unicode="&#x3c;" horiz-adv-x="768" d="M152 465q0 20 15.5 42.5t37.5 37.5l518 395q33 23 74 23q43 0 64 -29.5t12.5 -68t-42.5 -64.5l-425 -326l288 -325q38 -43 -3.5 -102.5t-100.5 -59.5q-43 0 -64 24l-350 396q-24 24 -24 57z" />
<glyph unicode="=" horiz-adv-x="901" d="M201 459q0 43 39 74.5t90 31.5h463q38 0 63 -23t25 -57q0 -41 -39 -72.5t-90 -31.5h-463q-38 0 -63 22.5t-25 55.5zM266 762q0 44 38.5 76t88.5 32h463q39 0 63.5 -22.5t24.5 -56.5q0 -43 -38 -74t-89 -31h-463q-39 0 -63.5 21.5t-24.5 54.5z" />
<glyph unicode="&#x3e;" horiz-adv-x="776" d="M82 86q8 39 41 64l428 325l-289 326q-23 33 -13 69t45.5 64.5t72.5 28.5q43 0 63 -23l350 -395q23 -23 23 -60q0 -20 -15 -41.5t-36 -35.5l-519 -396q-30 -24 -73 -24t-64.5 29.5t-13.5 68.5z" />
<glyph unicode="?" horiz-adv-x="854" d="M238 1067q0 90 64 178t171 144.5t221 56.5q156 0 244 -111q63 -78 63 -196q0 -36 -9 -72t-19.5 -63.5t-35 -62t-39 -53t-49.5 -53t-48 -46t-51 -46.5q-59 -53 -93.5 -95t-44.5 -85l-26 -127q-7 -38 -45 -65t-82 -27q-43 0 -67.5 27t-16.5 65l26 127q10 46 32.5 88.5 t57.5 83t61.5 66.5t70.5 65h-2q42 37 64.5 59.5t50.5 55.5t40 65.5t12 67.5q0 58 -36.5 103t-96.5 45q-69 0 -130 -53.5t-76 -127.5q-7 -38 -44 -65t-81 -27q-38 0 -62 22.5t-24 55.5zM266 98q0 60 53.5 108t118.5 48q53 0 87 -34t34 -81q0 -60 -55.5 -105.5t-122.5 -45.5 q-50 0 -82.5 32t-32.5 78z" />
<glyph unicode="@" horiz-adv-x="1327" d="M237 317q-24 95 1 203l49 234q46 216 234.5 368t410.5 152h20q108 0 198 -40.5t145 -111t78.5 -165.5t-1.5 -203l-53 -254q-19 -87 -107.5 -155.5t-181.5 -68.5q-82 0 -135 43q-69 -40 -154 -40h-20q-104 0 -160.5 70t-34.5 171l49 234q24 113 108 179t191 66h21 q107 0 160.5 -66t29.5 -179l-53 -254q-8 -41 24 -52q30 -10 56 16q14 15 18 36l54 254q17 79 2 142.5t-53.5 108.5t-95 69t-122.5 24h-20q-89 0 -175.5 -42.5t-151 -122.5t-85.5 -179l-49 -234q-29 -136 51.5 -238t214.5 -102q38 0 63 -22t25 -54q0 -42 -38 -73t-88 -31 q-109 0 -199.5 40.5t-146 111t-79.5 165.5zM707 500q-6 -28 10 -47t47 -19q30 0 53 19t29 47l57 270q6 30 -8.5 50t-44.5 20q-31 0 -55.5 -20.5t-30.5 -49.5z" />
<glyph unicode="A" horiz-adv-x="1062" d="M53 109l666 1294q17 29 50.5 48t68.5 19q34 0 57.5 -19t28.5 -48l116 -1294h2q2 -43 -38 -82t-93 -39q-34 0 -57 18t-27 49l-28 275h-414q-115 -229 -139 -275q-15 -29 -48.5 -48t-68.5 -19q-49 0 -75 39q-13 19 -13 40t14 44zM481 518h303l-28 565z" />
<glyph unicode="B" horiz-adv-x="1110" d="M162 94l270 1272q7 38 44.5 65t80.5 27h313q137 0 230.5 -92.5t93.5 -230.5q0 -98 -53.5 -189.5t-145.5 -159.5q56 -50 86.5 -122.5t30.5 -155.5q0 -149 -78 -266.5t-203.5 -179.5t-269.5 -62h-313q-43 0 -69 28q-19 20 -19 47q0 9 2 19zM391 178h207q121 0 209 84 t88 221q0 88 -52 149.5t-134 61.5h-207zM539 868h206q88 0 161 74.5t73 167.5q0 69 -41.5 118.5t-106.5 49.5h-206z" />
<glyph unicode="C" horiz-adv-x="1040" d="M209 406l137 647q37 172 189 294.5t331 122.5q164 0 262 -110q86 -97 86 -228q0 -19 -2 -38q-8 -35 -42 -67t-74 -36q-7 -1 -13 -1q-35 0 -58 24q-28 28 -28 84q0 80 -48 132t-124 52q-90 0 -169 -67.5t-99 -161.5l-137 -647q-6 -27 -6 -52q0 -62 36 -110q50 -68 140 -68 q83 0 157.5 59.5t102.5 147.5q12 39 52 64q33 21 67 21q7 0 14 -1q37 -3 59 -35q18 -26 18 -54q0 -6 -1 -13q-55 -156 -204.5 -266.5t-303.5 -110.5q-118 0 -205.5 56t-123.5 152q-22 58 -23 122q0 43 10 88z" />
<glyph unicode="D" horiz-adv-x="1103" d="M162 94l270 1272q7 38 45 65t82 27h295q178 0 278 -122q73 -90 74 -207q0 -43 -10 -89l-133 -620q-37 -174 -188.5 -297t-329.5 -123h-295q-45 0 -71 28q-19 20 -19 47q0 9 2 19zM395 190h191q90 0 167 67t97 163l133 620q6 28 6 53q-1 61 -35 109q-48 68 -139 68h-190z " />
<glyph unicode="E" horiz-adv-x="970" d="M162 94l270 1272q7 38 43.5 65t79.5 27h565q39 0 63.5 -22.5t24.5 -55.5q0 -44 -38.5 -77t-88.5 -33h-456l-84 -391h399q38 0 63 -23.5t25 -58.5q0 -43 -39 -75t-90 -32h-399l-105 -500h463q38 0 63 -22.5t25 -56.5q0 -45 -39.5 -78t-89.5 -33h-571q-43 0 -68 28 q-18 20 -18 46q0 10 2 20z" />
<glyph unicode="F" horiz-adv-x="987" d="M160 84l270 1280q9 40 46 67t81 27h608q38 0 62 -23t24 -57q0 -44 -38.5 -77t-88.5 -33h-501l-84 -402h440q38 0 63 -23t25 -57q0 -44 -39 -76t-90 -32h-440l-125 -594q-9 -40 -46 -68t-81 -28t-70 28q-19 21 -18 48q0 10 2 20z" />
<glyph unicode="G" horiz-adv-x="1103" d="M199 406l137 647q37 173 189 295t331 122q152 0 249 -92t103 -231v-6q0 -61 -58 -103q-41 -29 -81 -29q-13 0 -26 3q-52 13 -56 75q1 10 1 19q0 73 -43 122q-48 54 -130 54q-89 0 -167.5 -67.5t-98.5 -161.5l-137 -647q-6 -27 -6 -52q0 -62 36 -110q49 -68 138 -68 q95 0 177.5 63.5t104.5 166.5l41 190h-190q-65 0 -80 50q-4 13 -4 26q0 33 26 65q37 44 97 47h280q44 0 70 -27q21 -21 21 -50q0 -7 -1 -15l-61 -286q-37 -173 -189 -295.5t-331 -122.5q-117 0 -204.5 56t-124.5 152q-22 58 -22 123q0 42 9 87z" />
<glyph unicode="H" horiz-adv-x="1159" d="M160 84l274 1292q7 39 44.5 66.5t82.5 27.5q43 0 68 -27q20 -21 20 -50q0 -8 -2 -17l-106 -497h432l106 497q7 39 43.5 66.5t79.5 27.5q44 0 70 -27q20 -21 20 -50q0 -8 -2 -17l-274 -1292q-9 -40 -46 -68t-81 -28q-43 0 -68 28q-18 21 -18 48q0 10 2 20l127 606h-432 l-127 -606q-9 -40 -45.5 -68t-79.5 -28q-45 0 -71 28q-19 21 -19 48q0 10 2 20z" />
<glyph unicode="I" horiz-adv-x="892" d="M102 80q0 45 39 75.5t92 30.5h142l229 1086h-141q-40 0 -65 22t-25 56q0 44 39 76t92 32h493q38 0 64 -23t26 -57q0 -44 -39.5 -75t-91.5 -31h-139l-229 -1086h139q39 0 64.5 -21t25.5 -56q0 -44 -40 -76.5t-91 -32.5h-493q-39 0 -65 23t-26 57z" />
<glyph unicode="J" horiz-adv-x="1019" d="M80 330q0 60 35 96t84 41q7 1 13 1q34 0 56 -24q27 -27 27 -82q0 -80 49.5 -133t126.5 -53q90 0 167 67.5t97 162.5l185 862h-371q-39 0 -63.5 23t-24.5 59q0 44 39 76t90 32h477q43 0 68 -27q20 -21 20 -50q0 -8 -2 -17l-205 -958q-37 -173 -188.5 -295.5t-329.5 -122.5 q-152 0 -251 100t-99 242z" />
<glyph unicode="K" horiz-adv-x="1036" d="M160 84l274 1292q7 39 44.5 66.5t82.5 27.5q43 0 69 -27q20 -21 21 -50q0 -8 -2 -17l-108 -504q83 80 279 272t302 294q37 32 90 32q60 0 78 -54q5 -15 5 -30q0 -37 -33 -69l-435 -422l197 -772q2 -9 2 -18q0 -35 -30 -71q-38 -46 -95 -46q-29 0 -53.5 16.5t-34.5 44.5 l-176 680l-156 -143l-106 -502q-9 -40 -46 -68t-81 -28q-45 0 -71 28q-19 21 -19 48q0 10 2 20z" />
<glyph unicode="L" horiz-adv-x="978" d="M166 106l268 1270q9 40 46 67t81 27q45 0 70 -27q18 -20 18 -47q0 -10 -2 -20l-248 -1173h471q38 0 63 -23.5t25 -58.5q0 -44 -39.5 -76.5t-89.5 -32.5h-577q-45 0 -70 27q-18 20 -18 47q0 9 2 20z" />
<glyph unicode="M" horiz-adv-x="1439" d="M164 84l274 1292q7 39 43.5 66.5t79.5 27.5q31 0 54.5 -15t29.5 -38l203 -747q101 142 295.5 420t228.5 327q18 24 46.5 38.5t60.5 14.5q45 0 69 -29q19 -23 18 -51q0 -7 -1 -14l-275 -1292q-9 -40 -45.5 -68t-79.5 -28t-69 28q-19 21 -19 48q0 10 2 20l181 856 l-369 -524q-44 -54 -109 -54q-66 0 -82 52l-145 524l-180 -854q-9 -40 -46 -68t-81 -28q-43 0 -68 28q-18 21 -18 48q0 9 2 20z" />
<glyph unicode="N" horiz-adv-x="1169" d="M160 84l274 1292q7 39 45.5 66.5t79.5 27.5q29 0 52.5 -15.5t31.5 -37.5l270 -942l174 901q7 40 43.5 67t81.5 27q44 0 70 -27q20 -21 20 -50q0 -8 -2 -17l-274 -1292q-7 -33 -36 -59t-66 -35l4 2q-12 -4 -29 -4q-28 0 -52.5 15t-31.5 38l-270 946l-172 -903 q-9 -40 -46 -68t-81 -28q-43 0 -69 28q-19 21 -19 49q0 9 2 19z" />
<glyph unicode="O" horiz-adv-x="1101" d="M199 406l137 647q37 172 189.5 294.5t330.5 122.5t278 -122q73 -89 72 -205q0 -43 -10 -90l-137 -647q-37 -173 -188.5 -295.5t-329.5 -122.5q-117 0 -204.5 56t-124.5 152q-22 58 -22 123q0 42 9 87zM410 406q-6 -27 -5 -52q0 -62 35 -110q50 -68 140 -68q89 0 167.5 68 t98.5 162l137 647q6 27 6 52q1 61 -35 109q-50 68 -139 68q-90 0 -169 -67.5t-99 -161.5z" />
<glyph unicode="P" horiz-adv-x="1050" d="M160 84l270 1280q9 39 46.5 66.5t80.5 27.5h322q149 0 243.5 -96t94.5 -238q0 -123 -73 -232t-190.5 -173t-244.5 -64h-215l-121 -571q-9 -40 -46 -68t-81 -28q-43 0 -69 28q-19 21 -19 49q0 9 2 19zM535 846h215q95 0 172 76t77 174q0 73 -45 122.5t-116 49.5h-215z" />
<glyph unicode="Q" horiz-adv-x="1116" d="M199 406l137 647q37 172 189.5 294.5t330.5 122.5t278 -122q72 -90 72 -205q0 -43 -10 -90l-137 -647q-22 -110 -115 -226l51 -69q15 -22 15 -46q0 -27 -20 -57q-38 -55 -107 -55q-44 0 -68 27l-49 63q-107 -55 -225 -55q-117 0 -204.5 56t-124.5 152q-22 58 -22 123 q0 42 9 87zM410 406q-6 -27 -6 -51q0 -62 36 -111q51 -68 140 -68q38 0 77 14l-67 86q-14 20 -14 43q0 28 21 60q38 59 103 59q47 0 68 -30l53 -70q19 45 25 68l137 647q6 27 6 52q0 62 -35 109q-49 68 -139 68q-89 0 -168.5 -67.5t-99.5 -161.5z" />
<glyph unicode="R" horiz-adv-x="1073" d="M158 82l274 1284q7 38 44.5 65t80.5 27h338q146 0 239 -93.5t93 -231.5q0 -127 -79.5 -235.5t-207.5 -172.5l72 -612v-2q2 -44 -36 -83.5t-91 -39.5q-33 0 -58.5 17t-31.5 46l-58 631q-12 -6 -239 -6l-127 -594q-8 -38 -44.5 -66t-80.5 -28q-43 0 -69 28q-20 22 -20 50 q0 8 1 16zM539 864h231q92 0 166 72.5t74 167.5q0 71 -43.5 118.5t-110.5 47.5h-231z" />
<glyph unicode="S" horiz-adv-x="989" d="M129 295q0 72 39.5 111.5t91.5 39.5q86 0 86 -122q0 -63 44.5 -105.5t129.5 -42.5q116 0 190 65.5t74 176.5t-102 188l-49 33q-121 77 -184 125q-148 116 -148 278q0 96 42 178t111 135.5t157.5 84t181.5 30.5q151 0 244 -78t93 -210q0 -75 -39.5 -115.5t-93.5 -40.5 q-84 0 -84 127q0 60 -39.5 94.5t-121.5 34.5q-108 0 -172 -64.5t-64 -148.5q0 -75 78 -143q66 -57 227 -160q85 -57 130.5 -143t45.5 -187q0 -104 -45.5 -190.5t-119.5 -141.5t-165.5 -85.5t-185.5 -30.5q-165 0 -258.5 89.5t-93.5 217.5z" />
<glyph unicode="T" horiz-adv-x="911" d="M291 1352q0 43 39 74.5t90 31.5h680q38 0 63 -22.5t25 -55.5q0 -44 -39.5 -77t-89.5 -33h-234l-252 -1186q-9 -40 -47 -68t-82 -28q-43 0 -68 28q-18 21 -18 48q0 10 2 20l252 1186h-233q-39 0 -63.5 23t-24.5 59z" />
<glyph unicode="U" horiz-adv-x="1163" d="M227 406l207 970q7 39 44.5 66.5t82.5 27.5q43 0 68 -27q20 -21 20 -50q0 -8 -2 -17l-207 -970q-6 -27 -6 -52q0 -61 36 -109q50 -67 138 -67q91 0 170 67t99 161l206 970q7 40 43.5 67t81.5 27q43 0 68 -27q20 -21 20 -50q0 -8 -2 -17l-207 -970q-37 -172 -189 -295 t-331 -123q-177 0 -277 123q-73 90 -73 205q0 43 10 90z" />
<glyph unicode="V" horiz-adv-x="1028" d="M332 1350q-2 45 37.5 82.5t89.5 37.5q35 0 60 -20t26 -51l22 -340l19 -684l297 659l176 365q15 31 47.5 51t67.5 20q50 0 74 -39q13 -21 13 -42q0 -19 -10 -39q-66 -135 -291.5 -593.5t-341.5 -699.5q-15 -28 -48.5 -48.5t-67.5 -20.5q-37 0 -62 19t-26 48z" />
<glyph unicode="W" horiz-adv-x="1566" d="M338 1348q-1 5 -1 9q1 33 25 63q28 34 70 46q16 4 31 4q25 0 47 -11q35 -18 39 -58q16 -181 36.5 -516.5t32.5 -489.5q40 72 110 211.5t106 206.5q-9 88 -32 266.5t-32 266.5q-1 5 -1 10q0 38 35 74q39 40 91 40q34 0 58 -18t30 -47l25 -299l149 299q17 29 49.5 47 t67.5 18q52 0 74 -39q11 -19 10 -39q0 -22 -12 -46l-293 -533q11 -87 21 -215t18 -201q90 180 261 529t234 475q15 30 47.5 49.5t67.5 19.5q49 0 75 -38q13 -19 13 -41q0 -21 -12 -43v2l-652 -1293q-18 -30 -49 -49.5t-65 -19.5q-35 0 -60 17.5t-28 45.5l-41 465l-244 -465 q-17 -29 -49 -46t-66 -17t-59 20.5t-27 48.5q-16 210 -50 646.5t-50 646.5v-2z" />
<glyph unicode="X" horiz-adv-x="1032" d="M81 30q-10 18 -10 37q0 27 19 58l463 633q-23 74 -85.5 270t-94.5 305q-3 10 -3 20q0 35 31 71q40 46 97 46q32 0 55.5 -13.5t30.5 -37.5l127 -467l327 467q18 22 47.5 36.5t59.5 14.5q49 0 73 -43q10 -18 10 -37q0 -27 -20 -57l-422 -575l193 -631v-2q2 -9 2 -18 q0 -35 -30 -73q-38 -46 -95 -46q-30 0 -54.5 13.5t-31.5 35.5l-143 518l-367 -518q-17 -22 -46 -35.5t-58 -13.5q-51 0 -75 42z" />
<glyph unicode="Y" horiz-adv-x="974" d="M328 1337q-1 6 -1 12q0 39 33 77q39 44 93 44q32 0 55 -15t29 -40l122 -569l365 569q42 55 109 55q52 0 75 -42q10 -18 10 -37q0 -26 -18 -54l-487 -731l-111 -522q-9 -40 -45 -68t-80 -28t-69 28q-19 21 -19 48q0 10 2 20l111 520z" />
<glyph unicode="Z" horiz-adv-x="958" d="M72 48q-8 18 -8 36q0 28 20 55v-2l823 1131h-456q-38 0 -63.5 23.5t-25.5 58.5q0 44 40 76t90 32h622q38 0 61 -23t23 -53q0 -32 -20 -65l-822 -1127h480q38 0 63 -22.5t25 -56.5q0 -45 -39.5 -78t-87.5 -33h-647q-57 0 -78 48z" />
<glyph unicode="[" horiz-adv-x="628" d="M135 -154l344 1618q7 35 42.5 62t78.5 30h180q38 0 63 -22t25 -55q0 -43 -38.5 -75t-88.5 -32h-71l-305 -1433h71q38 0 63 -22t25 -56q0 -43 -38.5 -75t-88.5 -32h-174q-44 0 -70 27t-18 65z" />
<glyph unicode="\" horiz-adv-x="849" d="M281 1313q-12 43 26.5 88t95.5 45q28 0 51.5 -14t32.5 -37l373 -1272q11 -44 -27.5 -89.5t-95.5 -45.5q-28 0 -51.5 15t-32.5 38z" />
<glyph unicode="]" horiz-adv-x="628" d="M25 -168q0 43 38.5 75t86.5 32h71l303 1421h-71q-38 0 -62 22.5t-24 55.5q0 42 38.5 74t86.5 32h176q44 -3 68 -29.5t18 -62.5l-342 -1604q-7 -39 -44.5 -66.5t-80.5 -27.5h-176q-36 0 -61 22.5t-25 55.5z" />
<glyph unicode="^" horiz-adv-x="935" d="M225 925q0 35 27 66l412 426l-5 -2q25 35 76 35q52 0 66 -35l-4 2l229 -426q26 -51 -12 -96t-92 -45t-72 37h2l-166 315l-299 -319q-40 -37 -88 -37q-31 0 -52.5 22t-21.5 57z" />
<glyph unicode="_" horiz-adv-x="1339" d="M20 -238q0 43 38 75t89 32h959q38 0 63 -22.5t25 -55.5q0 -43 -39 -74.5t-90 -31.5h-959q-38 0 -62 22t-24 55z" />
<glyph unicode="`" horiz-adv-x="862" d="M465 1325.5q-7 35.5 18 69.5q26 35 71 47t77 -6q41 -22 127 -68t127 -68q32 -20 38.5 -57t-18.5 -69v2q-23 -36 -68.5 -48.5t-80.5 5.5q-25 13 -115.5 63.5t-136.5 75.5q-32 18 -39 53.5z" />
<glyph unicode="a" horiz-adv-x="954" d="M162 328l65 309q37 161 143 249.5t263 88.5q139 0 182 -84q12 57 73 77q22 7 43 7q29 0 53 -15q28 -18 28 -49q0 -9 -2 -18l-174 -819q-14 -61 -75 -85q-24 -9 -45 -9q-29 0 -53 16q-31 21 -31 60q0 8 1 18q-75 -89 -189 -92h-15q-143 0 -219 94q-57 70 -57 169 q0 39 9 83zM371 328q-5 -25 -5 -46q0 -44 24 -72q34 -40 104 -40q64 0 119.5 40.5t68.5 104.5l70 330q3 19 3 35q0 64 -52 95q-32 19 -71 19q-31 0 -65 -12q-85 -31 -121 -116l-10 -29z" />
<glyph unicode="b" horiz-adv-x="985" d="M162 82l270 1274q7 37 43.5 63.5t77.5 26.5q44 0 70 -26q20 -20 20 -47q0 -8 -2 -17l-100 -469q101 82 215 82h5q59 0 112 -22q55 -23 92 -65t51 -102q5 -23 5 -48q0 -39 -13 -83l-72 -334q-22 -105 -92 -185q-70 -79 -154 -115q-71 -30 -138 -30q-13 0 -26 1 q-123 11 -161 88q-44 -86 -121 -86q-42 0 -66 28q-18 20 -18 46q0 10 2 20zM420 317q-5 -22 -5 -41q0 -42 25 -68q36 -38 103 -38q66 0 120 39t68 106l70 334q5 22 5 41q0 43 -26 65q-38 31 -106 31q-67 0 -119.5 -38.5t-65.5 -104.5z" />
<glyph unicode="c" horiz-adv-x="901" d="M166 344l57 272q31 146 159.5 250.5t279.5 104.5q128 0 206 -57t88 -162q1 -9 1 -17q1 -57 -41 -91q-35 -29 -74 -29q-14 0 -28 4q-54 14 -64 79q1 50 -32 70t-95 20t-120 -51.5t-71 -120.5l-57 -272q-6 -25 -6 -47q1 -43 25 -75q36 -48 98 -48q58 0 106.5 33.5 t73.5 91.5q27 57 90 66q10 1 20 1q43 0 69 -29q19 -21 19 -48q0 -28 -20 -64q-61 -108 -170.5 -172.5t-226.5 -64.5q-151 0 -235 104q-61 75 -61 173q0 38 9 79z" />
<glyph unicode="d" horiz-adv-x="985" d="M164 170q-8 32 -8 68t8 77l69 334q18 138 138 230q117 90 246 90h6q114 0 178 -82l100 469q8 37 44.5 63.5t80.5 26.5q41 0 66 -26q20 -21 20 -48q0 -8 -2 -16l-272 -1274q-7 -39 -43 -66.5t-78 -27.5q-79 0 -84 86q-73 -77 -199 -88q-12 -1 -24 -1q-48 0 -92 16 q-56 20 -96.5 62.5t-57.5 106.5zM369 315q-4 -18 -3 -34q0 -43 26 -69q37 -36 104 -36t119 38t65 103l70 326q4 18 4 34q0 43 -26 71q-35 38 -101 38q-67 0 -121.5 -36.5t-67.5 -100.5z" />
<glyph unicode="e" horiz-adv-x="915" d="M160 326l67 311q30 143 156.5 238.5t278.5 95.5q154 0 238 -96q61 -70 60 -166q0 -36 -8 -76l-30 -144q-10 -45 -43.5 -68.5t-79.5 -23.5h-414l-14 -71q-4 -18 -4 -35q-1 -49 31 -79q42 -41 110 -44h7q81 0 130 65q39 52 89 52q9 0 19 -2q47 -8 65 -50q7 -16 7 -32 q0 -36 -34 -74q-128 -139 -340 -139q-153 0 -238 96q-62 70 -62 166q0 36 9 76zM424 565h307l14 72q3 17 3 33q0 43 -26 74q-36 42 -99.5 42t-117.5 -42t-67 -107z" />
<glyph unicode="f" horiz-adv-x="813" d="M245 825q-4 13 -4 25q0 32 26 63q35 42 95 45h87l34 166q29 133 140 228q111 94 251 94h101q36 0 61 -22.5t25 -55.5q0 -42 -38.5 -74t-88.5 -32h-100q-47 0 -88.5 -40t-53.5 -98l-35 -166h183q63 0 79 -48q4 -13 4 -25q0 -32 -25 -62q-35 -43 -97 -47h-183l-147 -694 q-9 -39 -45 -66.5t-78 -27.5q-45 0 -70 27q-18 20 -18 47q0 9 2 20l148 694h-86q-65 0 -79 49z" />
<glyph unicode="g" horiz-adv-x="956" d="M47 -229q0 84 61 122q28 17 56 17q21 0 42 -10q54 -26 54 -101q0 -100 123 -100q64 0 118.5 45.5t67.5 110.5l43 202q-84 -62 -200 -69h-15q-125 0 -201 94q-57 69 -57 153q0 38 11 78l69 324q31 144 144 241t262 97q140 0 180 -84q13 58 73 77q23 8 43 8q29 0 53 -16 q27 -18 27 -48q0 -9 -2 -19l-219 -1038q-31 -144 -158.5 -243t-277.5 -99q-133 0 -215 70t-82 188zM358 313q-4 -18 -4 -34q0 -42 26 -67q37 -36 105 -36q66 0 120 37.5t67 101.5l71 330q3 18 3 34q0 65 -53 96q-32 19 -70 19q-31 0 -66 -13q-85 -31 -119 -116l-10 -28z" />
<glyph unicode="h" horiz-adv-x="974" d="M162 82l270 1274q8 37 43 63.5t78 26.5q44 0 70 -26q20 -20 20 -47q0 -8 -2 -17l-96 -455q51 39 119 56q57 14 110 14h19q119 -5 183 -89q44 -57 44 -139q0 -39 -10 -84l-123 -577q-9 -40 -45.5 -67t-79.5 -27q-45 0 -70 27q-18 20 -18 47q0 10 2 20l121 577q4 18 4 34 q0 39 -25 61q-35 32 -102 32t-119.5 -38.5t-65.5 -104.5l-118 -561q-9 -40 -46 -67t-81 -27q-43 0 -67 27q-17 20 -17 46q0 10 2 21z" />
<glyph unicode="i" horiz-adv-x="536" d="M172 82l168 795q9 40 46 67t81 27q43 1 67 -27q18 -20 17 -47q0 -10 -2 -20l-168 -795q-9 -39 -45 -66.5t-78 -27.5q-45 0 -70 27q-18 20 -18 47q0 9 2 20zM397 1218q-7 20 -7 40q0 38 25 77q44 70 128 76h12q83 0 106 -63q7 -20 7 -41q0 -37 -24 -76q-44 -70 -130 -76 h-12q-83 0 -105 63z" />
<glyph unicode="j" horiz-adv-x="708" d="M-68 -254q0 68 40 106.5t94 38.5q38 0 56.5 -28t18.5 -92q0 -36 19 -55t49 -19q82 0 106 102l207 975h-200q-39 0 -65 23t-26 57q0 41 39.5 72.5t89.5 31.5h302q40 0 64 -24q20 -20 20 -51q0 -7 -1 -15l-225 -1069q-26 -121 -127 -203.5t-223 -82.5q-105 0 -171.5 65.5 t-66.5 167.5zM573 1262q0 61 52.5 107t119.5 46q54 0 88.5 -32t34.5 -80q0 -60 -55.5 -106t-122.5 -46q-50 0 -83.5 32.5t-33.5 78.5z" />
<glyph unicode="k" horiz-adv-x="919" d="M162 82l270 1274q8 37 44 63.5t79 26.5t69 -26q19 -20 19 -47q0 -8 -2 -17l-156 -727q53 45 178 151.5t191 161.5q36 30 80 32q2 0 4 1q42 0 66 -31q14 -19 14 -43q0 -10 -2 -21q-8 -37 -39 -65l-252 -213l152 -475q4 -13 4 -27q0 -33 -27 -66q-38 -46 -96 -46 q-30 0 -53.5 13t-30.5 36l-131 428l-113 -94l-59 -289q-9 -40 -45.5 -67t-79.5 -27t-68 28q-18 20 -18 46q0 10 2 20z" />
<glyph unicode="l" horiz-adv-x="770" d="M190 274l230 1080q7 38 43.5 65t79.5 27t68 -27q20 -21 20 -49q0 -8 -2 -16l-230 -1080q-3 -15 -3 -28q0 -25 11 -43q17 -29 52 -29q34 0 63.5 30.5t38.5 74.5q7 33 31.5 55.5t54 29t58 2.5t48 -24.5t19.5 -50.5q0 -115 -107.5 -209t-244.5 -94q-124 0 -190 82 q-48 59 -47 139q0 31 7 65z" />
<glyph unicode="m" horiz-adv-x="1398" d="M135 82l172 807q13 57 73 79q24 9 46 9q27 0 49 -14q28 -18 28 -52q0 -10 -3 -22q32 47 88 69q51 20 107 19h10q129 -3 172 -109q122 103 258 103q154 0 227 -88q51 -61 51 -153q0 -40 -10 -87l-119 -561q-9 -40 -45 -67t-80 -27q-43 0 -67 27q-19 21 -19 50q0 8 2 17 l121 561q5 23 5 42q1 37 -17 63q-26 38 -88 38t-105.5 -38t-56.5 -105l-119 -561q-9 -39 -45 -66.5t-78 -27.5q-44 0 -70 27q-20 21 -20 50q0 8 2 17l121 561q5 23 5 43q0 37 -17 62q-26 38 -88 38q-61 0 -102.5 -37.5t-55.5 -105.5l-119 -561q-9 -40 -46 -67t-81 -27 q-43 0 -68 27q-20 21 -20 50q0 8 2 17z" />
<glyph unicode="n" horiz-adv-x="954" d="M129 80l172 809q10 51 68 76q29 12 54 11.5t46 -11.5q33 -18 33 -59q0 -11 -2 -23q87 94 215 94q67 -1 120.5 -19.5t93.5 -57.5q39 -40 51 -103q5 -25 6 -55q0 -44 -11 -97l-121 -565q-7 -38 -43 -65t-78 -27q-44 0 -70 27q-20 21 -20 48q0 8 2 17l121 563q4 18 4 34 q0 43 -26 71q-35 38 -101 38t-118.5 -39t-65.5 -104l-121 -563q-7 -38 -43 -65t-78 -27q-44 0 -70 27q-20 21 -20 48q0 8 2 17z" />
<glyph unicode="o" horiz-adv-x="933" d="M162 328l65 303q33 153 156 246.5t281 93.5q152 1 236 -97q62 -71 62 -169q0 -35 -8 -74l-65 -303q-24 -111 -91.5 -189.5t-155 -114.5t-187.5 -36q-155 0 -239 97q-62 72 -62 170q0 35 8 73zM368 255q6 -29 27 -46.5t45.5 -25t55.5 -7.5q65 0 118 42.5t66 109.5l65 303 q5 22 5 41q0 42 -25 72q-36 42 -100 42t-120 -45t-69 -110l-65 -303q-5 -26 -5 -47q0 -14 2 -26z" />
<glyph unicode="p" horiz-adv-x="995" d="M59 -397l271 1274q9 39 45 66.5t78 27.5q79 0 84 -86q73 78 198 88q12 1 23 1q48 0 93 -16q56 -21 97 -62t58 -108q8 -33 8 -69.5t-8 -75.5l-72 -334q-12 -93 -74 -168t-146 -113q-81 -38 -163 -38h-4q-126 0 -182 69l-97 -456q-8 -37 -44.5 -63.5t-80.5 -26.5 q-41 0 -66 27q-20 20 -20 47q0 8 2 16zM420 315q-4 -18 -4 -34q0 -42 26 -71q35 -38 101 -38q67 0 121 36.5t67 100.5l70 334q4 18 4 34q0 42 -27 69q-37 36 -104 36t-119.5 -38t-65.5 -103z" />
<glyph unicode="q" horiz-adv-x="985" d="M152 178q-5 22 -5 47q0 40 13 84l71 334q22 105 91.5 184.5t153.5 116.5q71 30 139 30q13 0 26 -1q122 -11 162 -88q42 86 121 86q41 0 65 -27q19 -21 19 -50q0 -8 -2 -17l-271 -1274q-7 -36 -44 -63t-79 -27q-44 0 -69 27q-19 20 -19 46q0 8 2 17l97 456 q-85 -69 -211 -69h-5q-59 0 -112 22q-55 22 -92.5 64t-50.5 102zM365 309q-3 -17 -3 -31q0 -43 28 -70q38 -36 104 -36q67 0 119 38.5t65 104.5l67 326q4 18 4 34q0 42 -25 69q-35 38 -101 38q-67 0 -120 -36.5t-67 -102.5z" />
<glyph unicode="r" horiz-adv-x="837" d="M119 82l170 797q12 59 71 83q26 11 49 11q26 0 47 -14q32 -20 32 -62q0 -13 -3 -29q65 63 118.5 86t119.5 25h10q95 0 157 -55q64 -58 64 -162q0 -79 -58 -115q-28 -18 -54 -18q-19 -1 -38 9q-44 22 -44 87q0 78 -117 78q-69 0 -123 -45t-69 -117l-119 -559 q-9 -40 -45.5 -67t-79.5 -27t-69 27q-20 21 -21 50q0 8 2 17z" />
<glyph unicode="s" horiz-adv-x="839" d="M96 180q-5 14 -5 28q0 36 32 66q42 41 98 42h3q58 -2 73 -54q23 -104 162 -104q67 0 111 37t44 88q0 45 -50 74.5t-128.5 53t-99.5 35.5q-131 76 -131 203q0 134 119 228t280 94q106 0 179.5 -39t99.5 -113q8 -23 8 -44q0 -48 -42 -83q-41 -36 -88 -36q-6 0 -12 1 q-53 5 -60 55l-1 7q-5 74 -123 74q-33 0 -65.5 -9t-60 -35.5t-27.5 -66.5q0 -44 49 -70q27 -14 73 -32t82.5 -31.5t78 -36.5t69.5 -48t46.5 -63.5t18.5 -85.5q0 -62 -23.5 -117t-63.5 -94t-91.5 -67.5t-108.5 -42.5t-114 -14q-143 0 -223.5 44t-108.5 156z" />
<glyph unicode="t" horiz-adv-x="888" d="M240 824q-4 13 -4 26q0 31 25 62q36 43 101 46h84l84 396q7 38 45 65t82 27q41 0 65 -27q19 -21 19 -48q0 -8 -2 -17l-84 -396h164q66 0 81 -50q4 -13 4 -25q0 -33 -27 -64q-36 -42 -97 -45h-164l-106 -500q-3 -15 -3 -28q1 -24 11 -43q16 -29 51 -29q95 0 107 100 q8 58 65 82q25 10 49 11q30 0 57 -17q39 -24 39 -74q0 -13 -3 -28q-21 -118 -122.5 -189t-230.5 -71q-123 0 -189 82q-47 59 -47 139q0 31 7 65l107 500h-84q-67 0 -84 50z" />
<glyph unicode="u" horiz-adv-x="944" d="M154 162q-5 25 -4 54q0 44 10 97l119 566q9 38 45 65t77 27q44 0 69 -27q19 -20 19 -47q0 -9 -2 -18l-118 -564q-4 -18 -3 -34q0 -43 25 -71q35 -38 101 -38t118.5 39t65.5 104l119 564q7 38 44 65t79 27q44 0 69 -27q19 -20 19 -47q0 -9 -2 -18l-173 -809 q-9 -51 -67 -76q-28 -12 -53 -12t-46 12q-32 18 -32 59q0 11 2 23q-87 -94 -217 -94q-67 1 -120 19t-92.5 58.5t-51.5 102.5z" />
<glyph unicode="v" horiz-adv-x="874" d="M229 848v10q-1 48 43 80q40 29 84 30q8 0 18 -2q54 -8 64 -57q5 -36 14.5 -91t15 -96.5t7.5 -78.5l17 -336l157 336l148 266q43 64 109 64q53 0 76 -40q10 -18 10 -39q0 -25 -15 -54l-445 -789q-14 -28 -43.5 -45.5t-66.5 -17.5q-35 0 -59 17.5t-27 45.5z" />
<glyph unicode="w" horiz-adv-x="1282" d="M201 846q-1 6 -1 11q0 37 33 73q38 42 91 41q33 0 57 -16t31 -46l65 -352l17 -262q17 27 56.5 112.5t55.5 112.5q-14 67 -34.5 192.5t-24.5 145.5q-1 7 -1 13q0 41 34 70q39 34 86 34q33 0 55.5 -15.5t26.5 -46.5l22 -213l111 209q37 60 106 60q49 1 75 -35 q12 -16 12 -37q0 -25 -17 -55l-199 -322l14 -225l129 260l211 354q19 27 50 44.5t63 17.5q48 0 72 -39q12 -19 12 -39q0 -22 -14 -47q-75 -133 -237.5 -404.5t-231.5 -392.5q-39 -62 -110 -64h-4q-67 0 -85 60l-37 262l-158 -262q-30 -41 -72 -55q-19 -6 -37 -6q-23 0 -41 9 q-34 17 -44 56z" />
<glyph unicode="x" horiz-adv-x="862" d="M100 133l-2 -2l312 358l-152 340q-4 12 -4 24q0 33 28 69q38 50 93 49q31 0 48.5 -9t29.5 -32l106 -275l221 275q36 41 101 41q35 1 58 -23q23 -23 23 -55v-1q0 -32 -26 -63q-49 -59 -147 -170t-148 -170l156 -358q6 -14 6 -28q0 -31 -28 -65q-40 -50 -97 -50 q-53 0 -72 43l-119 291l-239 -289q-39 -45 -94 -45q-35 0 -59 23t-24 56q0 35 29 66z" />
<glyph unicode="y" horiz-adv-x="966" d="M45 -244q0 68 40 107t93 39q78 0 78 -117q0 -98 135 -98q153 0 184 145l41 193q-75 -37 -161 -37q-151 0 -236 102q-62 75 -62 173q0 37 9 77l113 539q9 38 46 65t81 27q43 0 68 -27q17 -20 17 -45q0 -10 -2 -20l-112 -539q-5 -21 -5 -40q0 -44 24 -78q35 -48 98 -48 q59 0 93 12.5t77 63.5l133 629q9 38 45.5 65t79.5 27q44 0 68 -27q18 -20 18 -45q0 -10 -2 -20l-222 -1047q-32 -153 -152 -236t-278 -83q-138 0 -223.5 64t-85.5 179z" />
<glyph unicode="z" horiz-adv-x="804" d="M74 89q4 41 43 87l524 598h-324q-63 0 -78 50q-3 13 -3 25q0 35 26 67q36 44 96 47h482q60 -1 78 -43q6 -14 6 -29q0 -32 -25 -70l-549 -622h330q63 0 79 -51q4 -14 4 -27q0 -33 -26 -67q-36 -47 -100 -50h-487q-36 0 -58 22q-18 18 -18 49q-1 7 0 14z" />
<glyph unicode="{" horiz-adv-x="745" d="M229 629q0 43 36.5 72.5t84.5 29.5q39 0 63 36t33 85l84 391q24 113 121 207q45 44 108.5 68t127.5 24q39 0 64.5 -22.5t25.5 -55.5q0 -42 -39.5 -74t-89.5 -32q-39 0 -68 -35t-39 -80l-84 -391q-25 -121 -102 -195l-16 -14q1 0 2 -1t2 -1q52 -81 24 -217l-78 -367 q-10 -47 4.5 -81.5t53.5 -34.5t63.5 -22.5t24.5 -55.5q0 -44 -39.5 -76.5t-89.5 -32.5q-135 0 -197 94q-55 84 -30 201l79 377q28 129 -45 129q-37 0 -60.5 20.5t-23.5 53.5z" />
<glyph unicode="|" horiz-adv-x="657" d="M201 -78l303 1432q7 38 44 65t79 27q44 0 69 -27t17 -65l-303 -1432q-9 -40 -46 -67t-81 -27q-42 0 -66.5 27.5t-15.5 66.5z" />
<glyph unicode="}" horiz-adv-x="743" d="M27 -166q0 42 39.5 74.5t87.5 32.5q40 0 68 34.5t38 81.5l80 381q26 129 106 205l15 12q-8 16 -8 17q-46 74 -21 194l78 373q10 46 -3.5 80.5t-53.5 34.5q-37 0 -61.5 23t-24.5 57q0 41 38.5 72.5t86.5 31.5q63 0 115.5 -24.5t80.5 -67.5q58 -90 33 -207l-78 -373 q-5 -29 -6 -56t12 -46t39 -19q39 0 62.5 -20t23.5 -53q0 -43 -37 -73t-86 -30q-74 0 -102 -129l-82 -391q-25 -115 -117 -201q-100 -94 -237 -94q-38 0 -62 23t-24 57z" />
<glyph unicode="~" horiz-adv-x="987" d="M246 707q0 45 49 79q101 70 207 70q90 0 186 -53q74 -41 129 -41q39 0 86 33q24 18 60 18q34 0 52.5 -20.5t18.5 -49.5q0 -22 -16 -46t-37 -38q-97 -69 -201 -69q-90 0 -190 53q-88 43 -127 43t-88 -35q-22 -16 -56 -16q-32 0 -52.5 20.5t-20.5 51.5z" />
<glyph unicode="&#xa1;" horiz-adv-x="577" d="M96 -373l183 852q7 39 44.5 66.5t82.5 27.5q41 0 64.5 -27t16.5 -67l-182 -852q-7 -38 -43 -65t-78 -27q-44 0 -70 27t-18 65zM315 842q0 60 55.5 104.5t123.5 44.5q51 0 83.5 -31t32.5 -77q0 -61 -53.5 -108.5t-120.5 -47.5q-52 0 -86.5 33.5t-34.5 81.5z" />
<glyph unicode="&#xa2;" horiz-adv-x="901" d="M166 344l57 272q25 117 119 211t217 127l21 95q7 34 42 60t72 26q38 0 62 -26t16 -60l-18 -91q97 -25 155 -93.5t58 -164.5q0 -42 -33 -77t-78 -41q-46 -6 -74 16t-28 66q0 15 -2.5 27t-12.5 25.5t-12 16t-18 19.5l-117 -547q62 44 84 106q15 40 54 62t83 16 q39 -6 58 -37.5t6 -68.5q-39 -104 -129.5 -180t-198.5 -103l-17 -82q-8 -34 -42 -60t-72 -26q-37 0 -61 26.5t-17 59.5l18 86q-110 33 -164 126.5t-28 213.5zM369 344q-21 -102 43 -131l114 535q-43 -28 -66.5 -57.5t-33.5 -74.5z" />
<glyph unicode="&#xa3;" horiz-adv-x="1009" d="M35 80q0 42 39.5 74t87.5 32q44 0 81 34.5t48 82.5l71 336h-104q-38 0 -63 23t-25 57q0 42 39.5 74t87.5 32h104l58 271q31 145 160.5 247.5t285.5 102.5q132 0 217.5 -82t85.5 -209q0 -72 -39.5 -111.5t-91.5 -39.5q-41 0 -60.5 29t-19.5 95q0 60 -36 97t-95 37 q-70 0 -125.5 -46t-70.5 -120l-58 -271h201q38 0 62 -22t24 -55q0 -44 -38.5 -76.5t-86.5 -32.5h-201l-71 -336q-12 -48 -49 -117h462q37 0 61.5 -22.5t24.5 -54.5q0 -44 -38.5 -76.5t-88.5 -32.5h-753q-38 0 -62 23t-24 57z" />
<glyph unicode="&#xa4;" horiz-adv-x="1204" d="M139 78q4 38 37 67l121 101q-23 64 -23 141q0 128 109 264l-78 99q-19 29 -11.5 65t38.5 64q32 28 80 28q52 0 69 -28l76 -93q102 50 209 50q116 0 188 -50l111 93q35 28 80 28q52 0 72 -28q20 -26 11.5 -63.5t-40.5 -65.5l-121 -99q25 -64 25 -141q0 -138 -111 -264 l78 -101q34 -40 -4.5 -98.5t-102.5 -58.5q-48 0 -69 30l-72 93q-106 -50 -209 -50q-119 0 -188 50l-115 -93q-35 -30 -80 -30q-38 0 -61 26t-19 64zM489 412q0 -69 42.5 -117.5t109.5 -48.5q87 0 162.5 72t75.5 165q0 69 -43 118.5t-109 49.5q-89 0 -163.5 -72.5 t-74.5 -166.5z" />
<glyph unicode="&#xa5;" horiz-adv-x="1058" d="M197 369q0 44 38.5 76t88.5 32h190l18 86h-190q-38 0 -63 23t-25 57q0 42 39.5 73.5t87.5 31.5h123l-137 567q-6 44 32 87.5t90 43.5q68 0 84 -53l115 -584l367 584q15 25 43 39t61 14q51 0 73.5 -41t-5.5 -90l-377 -567h121q38 0 62 -21.5t24 -54.5q0 -44 -38.5 -76.5 t-86.5 -32.5h-191l-18 -86h190q37 0 61.5 -23t24.5 -57q0 -44 -38.5 -76t-88.5 -32h-190l-43 -207q-9 -40 -45.5 -67t-79.5 -27t-68 27.5t-16 66.5l43 207h-190q-38 0 -62 23t-24 57z" />
<glyph unicode="&#xa6;" horiz-adv-x="493" d="M156 82l80 377q7 38 42.5 65t77.5 27q44 0 70 -27t18 -65l-79 -377q-9 -40 -46 -67t-81 -27q-42 0 -66.5 27.5t-15.5 66.5zM346 979l80 377q7 38 43 65t78 27q44 0 70 -27t18 -65l-80 -377q-9 -40 -46 -67t-81 -27q-42 0 -66.5 27.5t-15.5 66.5z" />
<glyph unicode="&#xa7;" horiz-adv-x="1046" d="M160 18q2 37 32 68.5t74 40.5q44 7 76.5 -16t30.5 -60q3 -50 47.5 -81t97.5 -31q64 0 118 38.5t54 104.5q0 26 -10 50t-32 46.5t-37.5 35.5t-43.5 34q-132 93 -231 172q-41 33 -66.5 89t-25.5 118q0 89 60 172t161 139q-73 94 -57 201q30 136 149 220t266 87 q122 0 206 -68.5t87 -183.5q2 -46 -35.5 -81.5t-89.5 -35.5q-83 0 -86 74q-2 45 -32.5 78t-88.5 33q-63 0 -114.5 -36t-51.5 -98q0 -56 60 -106q45 -36 136 -104t132 -101q94 -76 94 -209q0 -92 -56 -171t-150 -134q69 -82 69 -192q0 -75 -36.5 -142.5t-95.5 -114 t-136 -73.5t-156 -27q-61 0 -118 17t-103 49t-72.5 83.5t-25.5 114.5zM455 647q0 -53 30 -74l146 -114h-2q30 -23 59 -23q53 0 103 56v-3q36 39 36 95t-30 80q-23 20 -73.5 58t-70.5 54h2q-25 19 -61 19q-58 0 -102 -52q-37 -44 -37 -96z" />
<glyph unicode="&#xa8;" horiz-adv-x="788" d="M349 1268q-17 54 21 111q47 66 128 67q78 0 99 -60q18 -53 -19 -109q-47 -68 -132 -69q-78 0 -97 60zM730 1268q-17 54 21 111q47 66 128 67q78 0 99 -60q18 -53 -19 -109q-47 -68 -132 -69q-78 0 -97 60z" />
<glyph unicode="&#xa9;" horiz-adv-x="1740" d="M248 592q0 176 88 337.5t252 297.5q125 103 271.5 158t295.5 55t272 -55t205 -158q59 -75 91 -179t32 -212q0 -177 -89 -337.5t-251 -295.5q-125 -105 -271 -160t-296 -55q-151 0 -275.5 55t-201.5 160q-60 74 -91.5 177.5t-31.5 211.5zM455 618q0 -191 120.5 -320.5 t309.5 -129.5q123 0 243.5 52.5t213 138.5t149.5 205t57 245q0 192 -121 322.5t-309 130.5q-123 0 -244 -53t-213 -139.5t-149 -206t-57 -245.5zM668 526l82 377q25 117 127.5 199t224.5 82q105 0 175.5 -74.5t61.5 -179.5q-8 -34 -40.5 -65t-69.5 -34q-44 -4 -72.5 19.5 t-23.5 60.5q6 39 -15 66t-55 27q-37 0 -70 -30.5t-41 -70.5l-82 -377q-8 -41 12.5 -71.5t57.5 -30.5q34 0 66.5 26.5t42.5 63.5q10 38 49 62.5t82 19.5q34 -4 54 -33.5t15 -62.5q-38 -104 -138 -179t-210 -75q-122 0 -190 81.5t-43 198.5z" />
<glyph unicode="&#xab;" horiz-adv-x="1142" d="M209 668q0 36 49 75l379 299q39 27 78 27q42 0 63 -29.5t13.5 -68t-39.5 -64.5l-295 -231q146 -172 194 -232q19 -22 15 -50t-19.5 -52.5t-42.5 -41.5t-55 -17q-39 0 -70 24l-252 301q-18 29 -18 60zM608 668q0 36 49 75l381 299q34 27 76 27q43 0 64.5 -29.5t13.5 -68 t-41 -64.5l-295 -231q168 -198 195 -232q20 -32 11 -68t-43 -64.5t-71 -28.5q-40 0 -67 24l-254 301q-19 30 -19 60z" />
<glyph unicode="&#xac;" horiz-adv-x="1138" d="M266 745q0 44 38 76.5t89 32.5h707q44 0 69 -27t17 -67l-80 -377q-9 -40 -46 -67t-81 -27q-43 0 -68 27.5t-16 66.5l59 285h-602q-38 0 -62 22t-24 55z" />
<glyph unicode="&#xad;" horiz-adv-x="784" d="M205 612q-12 43 21 82q31 36 83 39h443q58 0 71 -47q12 -43 -22 -82q-32 -37 -84 -37h-443q-56 0 -69 45z" />
<glyph unicode="&#xae;" horiz-adv-x="1732" d="M260 592q0 176 88 337.5t252 297.5q125 103 271.5 158t295.5 55t272.5 -55t205.5 -158q58 -73 89 -176.5t31 -212.5q0 -176 -88 -338t-250 -297q-125 -105 -271 -160t-296 -55q-151 0 -275.5 55t-201.5 160q-60 74 -91.5 177.5t-31.5 211.5zM467 618q0 -191 120.5 -320.5 t309.5 -129.5q164 0 317 87.5t249 237t96 316.5q0 193 -120.5 323t-308.5 130q-123 0 -244 -53t-213 -139.5t-149 -206t-57 -245.5zM670 375l137 647q7 38 42.5 64t78.5 26h196q97 0 160.5 -63t63.5 -156q0 -77 -47.5 -144t-120.5 -112l57 -231q3 -41 -34 -80t-85 -39 q-34 0 -58 16t-28 45l-55 262h-55l-50 -235q-7 -37 -42 -62.5t-76 -25.5q-43 0 -67.5 25.5t-16.5 62.5zM952 764h99q53 0 81 54q26 50 7 90q-15 30 -52 32h-98z" />
<glyph unicode="&#xb0;" horiz-adv-x="921" d="M403 1124q0 85 51 160t133 118.5t171 43.5q102 0 167.5 -66.5t65.5 -165.5q0 -127 -108 -223t-244 -96q-103 0 -169.5 65.5t-66.5 163.5zM578 1147q0 -42 27 -72.5t67 -30.5q53 0 98 45t45 103q0 44 -25.5 74t-64.5 30q-55 0 -101 -45t-46 -104z" />
<glyph unicode="&#xb1;" horiz-adv-x="882" d="M100 55q15 -30 56 -32h575q56 0 85 52q26 47 5 85q-15 28 -53 30h-575q-56 0 -86 -52q-27 -46 -7 -83zM199 578q0 44 37.5 76t87.5 32h147l35 160q7 39 44.5 66.5t80.5 27.5t67 -27t17 -67l-35 -160h149q38 0 62 -23t24 -57q0 -41 -38 -72.5t-86 -31.5h-150l-33 -160 q-9 -40 -45.5 -67t-79.5 -27t-68 27.5t-16 66.5l33 160h-147q-39 0 -62.5 22t-23.5 54z" />
<glyph unicode="&#xb2;" horiz-adv-x="751" d="M256 611.5q-19 42.5 12 88.5q83 98 303 349q27 32 41 49.5t33 50t25 59.5q2 4 2 15q0 -38 -82.5 -71.5t-140.5 -33.5q-32 0 -51 21.5t-19 52.5q0 97 88 175.5t207 78.5q89 0 146 -57t57 -142q0 -69 -32 -124.5t-97 -127.5l-226 -247h178q62 0 76 -50q13 -45 -21 -87 t-91 -42h-334q-55 0 -74 42.5z" />
<glyph unicode="&#xb3;" horiz-adv-x="759" d="M274 758q0 72 58 107q50 29 95.5 7t45.5 -84q0 -21 14 -36t33 -15q22 0 46 18t28 42l20 104q4 24 -9.5 42t-33.5 18q-3 0 -6.5 -2t-7.5 -3q-74 -23 -96 24t35 110l157 178h-90q-26 -60 -72.5 -72.5t-78.5 14t-25 62.5l14 74q8 37 44 63.5t79 26.5h310q56 0 74 -49 t-23 -95l-162 -180q52 -30 74 -87t8 -124l-23 -104q-22 -99 -109.5 -169.5t-189.5 -70.5q-91 0 -150 58t-59 143z" />
<glyph unicode="&#xb4;" horiz-adv-x="851" d="M444 1182q-12 30 10.5 67.5t61.5 59.5l289 129q41 18 80.5 5.5t50.5 -46.5q10 -33 -12 -69t-60 -54l-291 -133q-22 -11 -51 -11t-51.5 14.5t-26.5 39.5v-2z" />
<glyph unicode="&#xb6;" horiz-adv-x="1089" d="M240 1016q0 109 65.5 207t170.5 155.5t218 57.5h465q43 0 68 -28t16 -67l-266 -1261q-9 -38 -45.5 -65t-79.5 -27q-44 0 -69.5 27t-16.5 65l248 1169h-115l-248 -1169q-9 -38 -45.5 -65t-79.5 -27t-68 27t-16 65l136 637h-35q-133 0 -218 85.5t-85 213.5z" />
<glyph unicode="&#xb7;" horiz-adv-x="413" d="M197 651q0 62 54 109t120 47q53 0 87 -32.5t34 -80.5q0 -62 -54.5 -106.5t-122.5 -44.5q-52 0 -85 31t-33 77z" />
<glyph unicode="&#xb8;" horiz-adv-x="733" d="M4 -410q0 62 35 93.5t82 31.5q76 0 76 -98q0 -57 71 -57q41 0 75 35t34 81q0 36 -23 60t-71 24q-58 0 -72.5 38.5t14.5 84.5l92 154q18 28 47 43.5t58 15.5q47 0 69 -33t-8 -86v3q-11 -21 -53 -89q56 -16 96.5 -62t40.5 -124q0 -125 -102 -217t-232 -92q-101 0 -165 53 t-64 141z" />
<glyph unicode="&#xb9;" horiz-adv-x="720" d="M260 645q0 41 37.5 72t85.5 31h33l82 389q-27 -28 -54.5 -36.5t-45 3t-27 31.5t-3 49t28.5 55l185 176q34 31 86 31q38 0 63.5 -26.5t16.5 -63.5l-130 -608h33q38 0 62 -21.5t24 -52.5q0 -42 -37.5 -73.5t-85.5 -31.5h-268q-38 0 -62 21.5t-24 54.5z" />
<glyph unicode="&#xba;" horiz-adv-x="593" />
<glyph unicode="&#xbb;" horiz-adv-x="1122" d="M194.5 390q6.5 39 41.5 67l290 231l-192 230q-18 21 -15 48.5t16.5 52.5t42 42.5t60.5 17.5q45 0 66 -24l252 -301q22 -26 22 -58q0 -17 -15.5 -39t-35.5 -36l-379 -302q-34 -24 -78 -24q-38 0 -60 28t-15.5 67zM594 390q6 39 41 67l291 231l-193 230q-18 21 -15 48.5 t17 52.5t42.5 42.5t60.5 17.5q44 0 65 -24l254 -301q21 -29 21 -58q0 -16 -15.5 -38t-34.5 -37l-380 -302q-34 -24 -78 -24q-38 0 -60 28t-16 67z" />
<glyph unicode="&#xbc;" horiz-adv-x="1710" d="M270 645q0 42 38.5 72.5t86.5 30.5h33l76 352q-29 -14 -59 -11.5t-50 23.5q-22 23 -17.5 60.5t32.5 66.5l182 176q40 31 86 31q39 0 64 -26.5t18 -63.5l-129 -608h33q38 0 62 -21.5t24 -52.5q0 -42 -37.5 -73.5t-85.5 -31.5h-269q-38 0 -63 22t-25 54zM382.5 34 q-22.5 46 14.5 95l1041 1272q39 45 98 45q54 0 75.5 -44t-16.5 -95l-1038 -1272h2q-37 -47 -102 -47q-52 0 -74.5 46zM973 217q0 25 26 55h-2l404 547v-2q37 49 100 49q48 0 71.5 -42t-7.5 -91l-305 -414h104l6 35q9 38 45 64t78 26t65.5 -26t14.5 -64l-6 -35 q37 0 60.5 -21.5t23.5 -53.5q0 -41 -37.5 -72t-85.5 -31l-12 -63q-9 -38 -44 -64t-77 -26t-66.5 26t-15.5 64l12 63h-266q-33 0 -59.5 22.5t-26.5 53.5z" />
<glyph unicode="&#xbd;" horiz-adv-x="1685" d="M270 645q0 42 38.5 72.5t86.5 30.5h33l76 352q-29 -14 -59 -11.5t-50 23.5q-22 23 -17.5 60.5t32.5 66.5l182 176q40 31 88 31q38 0 62.5 -26.5t17.5 -63.5l-129 -608h33q38 0 62 -21.5t24 -52.5q0 -42 -37.5 -73.5t-85.5 -31.5h-269q-38 0 -63 22t-25 54zM383.5 34 q-21.5 46 15.5 95l1041 1272q36 45 96 45q54 0 75.5 -44t-16.5 -95l-1038 -1272h2q-37 -47 -102 -47q-52 0 -73.5 46zM1075.5 45.5q-20.5 45.5 16.5 91.5l325 385q70 80 70 129q0 20 -9 33.5t-26 13.5q-20 0 -38 -19t-23 -44q-8 -35 -44 -61.5t-79 -26.5q-35 0 -58.5 22.5 t-23.5 53.5q0 95 93 174.5t210 79.5q90 0 147.5 -56.5t57.5 -142.5q0 -48 -20 -95.5t-42 -76.5t-67 -82l2 2l-209 -246h141q36 0 60 -22t24 -54q0 -42 -37.5 -73t-85.5 -31h-313q-51 0 -71.5 45.5z" />
<glyph unicode="&#xbe;" horiz-adv-x="1751" d="M272 645q0 41 37.5 72t85.5 31h33l82 380q-42 -43 -83 -31.5t-45.5 54t28.5 88.5l184 176q34 31 86 31q38 0 63.5 -26.5t16.5 -63.5l-129 -608h33q38 0 62 -21.5t24 -52.5q0 -42 -37.5 -73.5t-85.5 -31.5h-269q-38 0 -62 21.5t-24 54.5zM383.5 34q-21.5 46 15.5 95 l1041 1272q36 45 96 45q54 0 75.5 -44t-16.5 -95l-1038 -1272h2q-15 -22 -43 -34.5t-59 -12.5q-52 0 -73.5 46zM1145 190q0 73 58 107q50 30 95 7q45 -22 45 -83q0 -21 14.5 -36t33.5 -15q21 0 44 17.5t27 41.5l23 105q4 24 -9.5 41.5t-33.5 17.5q-3 0 -7.5 -1.5l-7.5 -2.5 q-74 -23 -96 23.5t35 109.5l160 178h-92q-26 -60 -72.5 -72.5t-79 14.5t-25.5 63l15 73q8 37 44 63.5t79 26.5h309q56 0 74 -48.5t-23 -94.5l-162 -180q52 -30 74 -87t8 -124l-22 -105q-22 -98 -110 -168.5t-191 -70.5q-90 0 -148.5 58t-58.5 142z" />
<glyph unicode="&#xbf;" horiz-adv-x="841" d="M33 -166q0 36 9.5 72.5t19 62.5t36 62t38.5 52.5t50 53.5t47.5 45.5t51.5 46.5q60 54 93.5 95t43.5 86l27 127q8 38 44 65t80 27q43 0 68 -27t18 -65l-26 -127q-13 -60 -53.5 -121t-74 -94.5t-93.5 -88.5h2q-43 -38 -65 -59.5t-50.5 -55t-40.5 -65.5t-12 -67 q0 -58 36.5 -103t96.5 -45q69 0 130.5 53.5t76.5 126.5q8 38 43.5 65.5t79.5 27.5q39 0 63.5 -22.5t24.5 -55.5q0 -67 -38.5 -136t-101 -122t-147 -87t-170.5 -34q-156 0 -244 111q-63 78 -63 196zM473 834q0 60 55.5 105.5t122.5 45.5q50 0 83.5 -32.5t33.5 -78.5 q0 -60 -53.5 -107.5t-118.5 -47.5q-53 0 -88 34t-35 81z" />
<glyph unicode="&#xc0;" horiz-adv-x="1062" d="M53 109l666 1294q17 29 50.5 48t68.5 19q34 0 57.5 -19t28.5 -48l116 -1294h2q2 -43 -38 -82t-93 -39q-34 0 -57 18t-27 49l-28 275h-414q-115 -229 -139 -275q-15 -29 -48.5 -48t-68.5 -19q-48 0 -74.5 39t0.5 84zM481 518h303l-28 565zM633 1800.5q-7 35.5 18 69.5 q26 35 71 47t77 -6q41 -22 127 -67.5t127 -67.5q32 -20 38.5 -57.5t-18.5 -69.5v2q-23 -36 -68.5 -48.5t-80.5 5.5q-25 14 -115.5 64t-136.5 75q-32 18 -39 53.5z" />
<glyph unicode="&#xc1;" horiz-adv-x="1062" d="M53 109l666 1294q17 29 50.5 48t68.5 19q34 0 57.5 -19t28.5 -48l116 -1294h2q2 -43 -38 -82t-93 -39q-34 0 -57 18t-27 49l-28 275h-414q-115 -229 -139 -275q-15 -29 -48.5 -48t-68.5 -19q-48 0 -74.5 39t0.5 84zM481 518h303l-28 565zM668 1657q-12 30 10 67.5 t61 59.5l289 129q41 18 80.5 5.5t50.5 -46.5q10 -33 -12 -69t-60 -54l-290 -133q-20 -10 -52 -10q-29 0 -51 14t-26 39v-2z" />
<glyph unicode="&#xc2;" horiz-adv-x="1062" d="M53 109l666 1294q17 29 50.5 48t68.5 19q34 0 57.5 -19t28.5 -48l116 -1294h2q2 -43 -38 -82t-93 -39q-34 0 -57 18t-27 49l-28 275h-414q-115 -229 -139 -275q-15 -29 -48.5 -48t-68.5 -19q-48 0 -74.5 39t0.5 84zM481 518h303l-28 565zM579.5 1613.5 q-3.5 19.5 9.5 47.5t42 57l211 174q28 21 71 21q36 0 70 -27l131 -162q23 -31 16 -64.5t-39.5 -60t-70.5 -26.5q-41 0 -66 22l-84 119l-131 -119q-26 -19 -54 -27t-50 -4.5t-37 17t-18.5 33z" />
<glyph unicode="&#xc3;" horiz-adv-x="1062" d="M53 109l666 1294q17 29 50.5 48t68.5 19q34 0 57.5 -19t28.5 -48l116 -1294h2q2 -43 -38 -82t-93 -39q-34 0 -57 18t-27 49l-28 275h-414q-115 -229 -139 -275q-15 -29 -48.5 -48t-68.5 -19q-48 0 -74.5 39t0.5 84zM481 518h303l-28 565zM582 1671q0 64 59.5 120 t144.5 56q70 0 127 -45q61 -48 72 -53q11 29 35 53q31 31 76 31q39 0 59.5 -23.5t20.5 -58.5q0 -65 -61 -121.5t-144 -56.5q-68 0 -127 47l-74 55q-5 -21 -37 -53q-33 -33 -71 -33q-39 0 -59.5 23.5t-20.5 58.5z" />
<glyph unicode="&#xc4;" horiz-adv-x="1062" d="M53 109l666 1294q17 29 50.5 48t68.5 19q34 0 57.5 -19t28.5 -48l116 -1294h2q2 -43 -38 -82t-93 -39q-34 0 -57 18t-27 49l-28 275h-414q-115 -229 -139 -275q-15 -29 -48.5 -48t-68.5 -19q-48 0 -74.5 39t0.5 84zM481 518h303l-28 565zM571 1649q-18 54 21 111 q46 66 127 67q78 0 99 -60q19 -53 -18 -109q-48 -67 -132 -69q-78 0 -97 60zM952 1649q-18 54 21 111q46 66 127 67q78 0 99 -60q19 -53 -18 -109q-48 -67 -132 -69q-78 0 -97 60z" />
<glyph unicode="&#xc5;" horiz-adv-x="1062" d="M53 109l666 1294q17 29 50.5 48t68.5 19q34 0 57.5 -19t28.5 -48l116 -1294h2q2 -43 -38 -82t-93 -39q-34 0 -57 18t-27 49l-28 275h-414q-115 -229 -139 -275q-15 -29 -48.5 -48t-68.5 -19q-48 0 -74.5 39t0.5 84zM481 518h303l-28 565zM670 1712q0 94 79.5 164 t180.5 70q77 0 125.5 -47.5t48.5 -120.5q0 -94 -79 -164t-181 -70q-76 0 -125 48t-49 120zM826 1695q15 -21 46 -22q46 0 69 48q22 45 3 76q-14 19 -41 20q-49 0 -74 -47q-24 -43 -3 -75z" />
<glyph unicode="&#xc6;" horiz-adv-x="1583" d="M56.5 27.5q-22.5 39.5 2.5 85.5l705 1282v-2q13 29 45 47t68 18h841q38 0 63 -23t25 -57q0 -42 -39.5 -75t-89.5 -33h-458l-95 -447h402q39 0 63.5 -23.5t24.5 -56.5q0 -44 -38.5 -76t-88.5 -32h-402l-96 -447h465q38 0 63 -22.5t25 -56.5q0 -43 -39.5 -76t-87.5 -33 h-569q-45 0 -71 27.5t-19 66.5l51 234h-406q-25 -45 -77 -138.5t-76 -138.5q-17 -29 -50 -46t-69 -17q-50 0 -72.5 39.5zM502 518h344l160 752h-88z" />
<glyph unicode="&#xc7;" horiz-adv-x="1040" d="M209 410l137 643q37 173 188 295t330 122q164 0 260 -103t82 -257q-10 -36 -41.5 -67t-70.5 -35q-43 -5 -70 22.5t-27 83.5q0 77 -47.5 122.5t-124.5 45.5q-90 0 -169 -67.5t-99 -161.5l-137 -643q-20 -94 30 -162t140 -68q83 0 157.5 59.5t102.5 147.5q12 39 52.5 64 t82.5 20q37 -4 56.5 -35.5t13.5 -66.5q-42 -126 -146.5 -224.5t-230.5 -134.5l-47 -76q54 -14 92.5 -58.5t38.5 -121.5q0 -82 -47 -153.5t-121.5 -111.5t-155.5 -40q-100 0 -162.5 52.5t-62.5 138.5q0 61 34.5 91.5t78.5 30.5q75 0 75 -96q0 -55 70 -55q36 0 68 35t32 80 q0 34 -21 56.5t-65 22.5q-38 0 -57 18t-18.5 45t16.5 58l45 74q-147 26 -220.5 141.5t-41.5 268.5z" />
<glyph unicode="&#xc8;" horiz-adv-x="970" d="M162 94l270 1272q7 38 43.5 65t79.5 27h565q39 0 63.5 -22.5t24.5 -55.5q0 -44 -38.5 -77t-88.5 -33h-456l-84 -391h399q38 0 63 -23.5t25 -58.5q0 -43 -39 -75t-90 -32h-399l-105 -500h463q38 0 63 -22.5t25 -56.5q0 -45 -39.5 -78t-89.5 -33h-571q-43 0 -68 27.5 t-16 66.5zM633.5 1792.5q-7.5 35.5 17.5 71.5q26 36 73 48.5t79 -5.5q26 -14 118 -64.5t140 -75.5q32 -20 37.5 -58.5t-17.5 -70.5v2q-25 -36 -70.5 -49t-80.5 6q-26 14 -118 64.5t-140 75.5q-31 20 -38.5 55.5z" />
<glyph unicode="&#xc9;" horiz-adv-x="970" d="M162 94l270 1272q7 38 43.5 65t79.5 27h565q39 0 63.5 -22.5t24.5 -55.5q0 -44 -38.5 -77t-88.5 -33h-456l-84 -391h399q38 0 63 -23.5t25 -58.5q0 -43 -39 -75t-90 -32h-399l-105 -500h463q38 0 63 -22.5t25 -56.5q0 -45 -39.5 -78t-89.5 -33h-571q-43 0 -68 27.5 t-16 66.5zM637 1632q-10 32 12.5 70.5t63.5 58.5l315 140q40 18 81 5t54 -48q9 -34 -14 -71t-62 -56l-317 -140q-44 -19 -85 -6t-48 49v-2z" />
<glyph unicode="&#xca;" horiz-adv-x="970" d="M162 94l270 1272q7 38 43.5 65t79.5 27h565q39 0 63.5 -22.5t24.5 -55.5q0 -44 -38.5 -77t-88.5 -33h-456l-84 -391h399q39 0 63.5 -23t24.5 -59q0 -43 -39 -75t-90 -32h-399l-105 -500h463q38 0 63 -22.5t25 -56.5q0 -45 -39.5 -78t-89.5 -33h-571q-43 0 -68 27.5 t-16 66.5zM594.5 1641.5q1.5 46.5 50.5 95.5l186 139q99 68 175 14l141 -153q21 -23 21 -51.5t-17 -51t-42 -38t-56.5 -14.5t-57.5 22l-104 116l-158 -123q-53 -38 -96.5 -20t-42 64.5z" />
<glyph unicode="&#xcb;" horiz-adv-x="970" d="M162 94l270 1272q7 38 43.5 65t79.5 27h565q39 0 63.5 -22.5t24.5 -55.5q0 -44 -38.5 -77t-88.5 -33h-456l-84 -391h399q38 0 63 -23.5t25 -58.5q0 -43 -39 -75t-90 -32h-399l-105 -500h463q38 0 63 -22.5t25 -56.5q0 -45 -39.5 -78t-89.5 -33h-571q-43 0 -68 27.5 t-16 66.5zM543 1667q0 53 45.5 94t103.5 41q45 0 76 -29t31 -71q0 -52 -48.5 -91.5t-107.5 -39.5q-43 0 -71.5 28.5t-28.5 67.5zM952 1669q0 52 47 92.5t105 40.5q44 0 74 -29t30 -69q0 -53 -48 -93t-105 -40q-44 0 -73.5 29t-29.5 69z" />
<glyph unicode="&#xcc;" horiz-adv-x="892" d="M102 80q0 45 39 77.5t92 32.5h142l229 1078h-141q-41 0 -65.5 23t-24.5 59q0 44 39 76t92 32h493q38 0 64 -23t26 -57q0 -44 -40.5 -77t-90.5 -33h-139l-229 -1078h139q39 0 64.5 -22.5t25.5 -56.5q0 -45 -39.5 -78t-91.5 -33h-493q-39 0 -65 23t-26 57zM572.5 1783.5 q-6.5 35.5 17.5 71.5q27 36 73 48.5t78 -5.5q18 -9 113.5 -61.5t144.5 -77.5q34 -20 40 -58.5t-19 -70.5l2 2q-26 -37 -71.5 -49.5t-82.5 6.5q-236 130 -256 140q-33 19 -39.5 54.5z" />
<glyph unicode="&#xcd;" horiz-adv-x="892" d="M102 80q0 45 39 77.5t92 32.5h142l229 1078h-141q-41 0 -65.5 23t-24.5 59q0 44 39 76t92 32h493q38 0 64 -23t26 -57q0 -44 -40.5 -77t-90.5 -33h-139l-229 -1078h139q39 0 64.5 -22.5t25.5 -56.5q0 -45 -39.5 -78t-91.5 -33h-493q-39 0 -65 23t-26 57zM541 1622 q-11 33 11 71t64 58l316 139q41 18 82 5t53 -48q9 -34 -14 -71t-62 -56l-317 -139q-43 -19 -83.5 -6t-49.5 49v-2z" />
<glyph unicode="&#xce;" horiz-adv-x="892" d="M102 80q0 45 39 77.5t92 32.5h142l229 1078h-141q-41 0 -65.5 23t-24.5 59q0 44 39 76t92 32h493q38 0 64 -23t26 -57q0 -44 -40.5 -77t-90.5 -33h-139l-229 -1078h139q39 0 64.5 -22.5t25.5 -56.5q0 -45 -39.5 -78t-91.5 -33h-493q-39 0 -65 23t-26 57zM504 1645 q0 40 55 84l213 159q28 21 72 21q35 0 74 -27l141 -153q23 -31 13 -68t-46 -67.5t-74 -30.5q-42 0 -63 24l-92 96q-41 -31 -129 -96q-34 -24 -78 -24q-39 0 -62.5 24.5t-23.5 57.5z" />
<glyph unicode="&#xcf;" horiz-adv-x="892" d="M102 80q0 45 39 77.5t92 32.5h142l229 1078h-141q-41 0 -65.5 23t-24.5 59q0 44 39 76t92 32h493q38 0 64 -23t26 -57q0 -44 -40.5 -77t-90.5 -33h-139l-229 -1078h139q39 0 64.5 -22.5t25.5 -56.5q0 -45 -39.5 -78t-91.5 -33h-493q-39 0 -65 23t-26 57zM467 1645 q0 58 52 103.5t116 45.5q50 0 83.5 -33t33.5 -80q0 -56 -53 -100.5t-117 -44.5q-50 0 -82.5 32t-32.5 77zM838 1645q0 58 52 103.5t114 45.5q51 0 84.5 -33t33.5 -80q0 -56 -53.5 -100.5t-118.5 -44.5q-49 0 -80.5 32t-31.5 77z" />
<glyph unicode="&#xd0;" horiz-adv-x="1103" d="M156 723q0 42 35 73t83 31h43l115 539q7 38 44 65t81 27h295q178 0 278.5 -122.5t63.5 -295.5l-133 -620q-37 -174 -188.5 -297t-329.5 -123h-295q-45 0 -70 27t-16 67l117 555h-43q-36 0 -58 21t-22 53zM393 190h191q91 0 168.5 67.5t97.5 162.5l133 620 q20 95 -29.5 162.5t-140.5 67.5h-190l-95 -443h129q35 0 57.5 -21.5t22.5 -53.5q0 -41 -36.5 -72t-82.5 -31h-129z" />
<glyph unicode="&#xd1;" horiz-adv-x="1169" d="M160 84l274 1292q7 39 45.5 66.5t79.5 27.5q29 0 52.5 -15.5t31.5 -37.5l270 -942l174 901q7 40 43.5 67t81.5 27q44 0 69.5 -27t18.5 -67l-274 -1292q-7 -33 -36 -59t-66 -35l4 2q-12 -4 -29 -4q-28 0 -52.5 15t-31.5 38l-270 946l-172 -903q-9 -40 -46 -68t-81 -28 q-43 0 -69 28.5t-17 67.5zM649 1718q0 64 60 120t145 56q70 0 127 -45q61 -48 72 -53q11 30 34 53q31 31 76 31q39 0 59.5 -23.5t20.5 -58.5q0 -65 -61 -121.5t-144 -56.5q-68 0 -127 47l-73 55q-5 -21 -37 -53q-33 -33 -72 -33t-59.5 23.5t-20.5 58.5z" />
<glyph unicode="&#xd2;" horiz-adv-x="1101" d="M199 406l137 647q37 172 189.5 294.5t330.5 122.5t277.5 -122.5t62.5 -294.5l-137 -647q-37 -173 -188.5 -295.5t-329.5 -122.5q-117 0 -204.5 56t-124.5 152t-13 210zM410 406q-20 -94 30 -162t140 -68q89 0 167.5 68t98.5 162l137 647q20 94 -29.5 161.5t-138.5 67.5 q-90 0 -169 -67.5t-99 -161.5zM668.5 1763q-6.5 36 17.5 72q27 36 73.5 48.5t78.5 -5.5q34 -18 122 -66.5t134 -72.5q34 -20 40 -58.5t-18 -70.5v2q-25 -36 -70.5 -49t-80.5 6q-18 9 -113.5 61.5t-144.5 77.5q-32 19 -38.5 55z" />
<glyph unicode="&#xd3;" horiz-adv-x="1101" d="M199 406l137 647q37 172 189.5 294.5t330.5 122.5t277.5 -122.5t62.5 -294.5l-137 -647q-37 -173 -188.5 -295.5t-329.5 -122.5q-117 0 -204.5 56t-124.5 152t-13 210zM410 406q-20 -94 30 -162t140 -68q89 0 167.5 68t98.5 162l137 647q20 94 -29.5 161.5t-138.5 67.5 q-90 0 -169 -67.5t-99 -161.5zM647 1606q-10 32 12.5 70.5t63.5 58.5l315 139q41 18 82.5 5t53.5 -48q9 -34 -14 -71t-62 -56l-318 -139q-43 -19 -83.5 -6t-49.5 49v-2z" />
<glyph unicode="&#xd4;" horiz-adv-x="1101" d="M199 406l137 647q37 172 189.5 294.5t330.5 122.5t277.5 -122.5t62.5 -294.5l-137 -647q-37 -173 -188.5 -295.5t-329.5 -122.5q-117 0 -204.5 56t-124.5 152t-13 210zM410 406q-20 -94 30 -162t140 -68q89 0 167.5 68t98.5 162l137 647q20 94 -29.5 161.5t-138.5 67.5 q-90 0 -169 -67.5t-99 -161.5zM621 1655q0 38 51 82l205 151q31 21 71 21q34 0 66 -25l137 -147q21 -30 12 -65.5t-42.5 -65t-69.5 -29.5q-35 0 -64 25l-84 92q-114 -82 -127 -92q-32 -25 -69 -25q-39 0 -62.5 23.5t-23.5 54.5z" />
<glyph unicode="&#xd5;" horiz-adv-x="1101" d="M199 406l137 647q37 172 189.5 294.5t330.5 122.5t277.5 -122.5t62.5 -294.5l-137 -647q-37 -173 -188.5 -295.5t-329.5 -122.5q-117 0 -204.5 56t-124.5 152t-13 210zM410 406q-20 -94 30 -162t140 -68q89 0 167.5 68t98.5 162l137 647q20 94 -29.5 161.5t-138.5 67.5 q-90 0 -169 -67.5t-99 -161.5zM582 1683q0 64 59.5 120.5t144.5 56.5q70 0 127 -45q65 -50 72 -54q11 30 35 54q30 30 76 30q39 0 59.5 -23.5t20.5 -58.5q0 -65 -61 -121.5t-144 -56.5q-68 0 -127 47l-74 56q-5 -22 -37 -54t-71 -32t-59.5 23t-20.5 58z" />
<glyph unicode="&#xd6;" horiz-adv-x="1101" d="M199 406l137 647q37 172 189.5 294.5t330.5 122.5t277.5 -122.5t62.5 -294.5l-137 -647q-37 -173 -188.5 -295.5t-329.5 -122.5q-117 0 -204.5 56t-124.5 152t-13 210zM410 406q-20 -94 30 -162t140 -68q89 0 167.5 68t98.5 162l137 647q20 94 -29.5 161.5t-138.5 67.5 q-90 0 -169 -67.5t-99 -161.5zM565 1686q0 55 49.5 98t110.5 43q45 0 75.5 -31t30.5 -74q0 -53 -50 -95t-109 -42q-46 0 -76.5 30t-30.5 71zM963 1686q0 56 48 98.5t111 42.5q45 0 77 -31.5t32 -73.5q0 -54 -51 -95.5t-111 -41.5q-48 0 -77 29t-29 72z" />
<glyph unicode="&#xd7;" horiz-adv-x="759" d="M167.5 436q8.5 39 41.5 66l156 125l-101 131q-19 26 -10.5 65t37.5 64q36 30 80 30t69 -30l95 -119l145 119q37 31 79.5 31t67.5 -31q20 -25 11 -63.5t-39 -65.5q-27 -23 -80 -66.5t-76 -62.5l102 -127q20 -28 12 -66.5t-40 -64.5q-34 -27 -78 -27q-51 0 -70 27l-94 118 l-145 -118q-31 -27 -80 -27q-48 0 -70 27q-21 26 -12.5 65z" />
<glyph unicode="&#xd8;" horiz-adv-x="1208" d="M112 -42.5q-6 36.5 19 71.5l129 180q-31 91 -10 197l137 647q37 173 189 295t331 122q121 0 215 -61l76 107v-3q24 39 69.5 53t82.5 -7q33 -18 37.5 -56t-19.5 -71l-129 -181q33 -84 8 -198l-137 -647q-37 -173 -188.5 -295.5t-329.5 -122.5q-121 0 -215 61l-76 -106v2 q-24 -35 -71.5 -49.5t-82.5 8.5l3 -2q-32 19 -38 55.5zM395 397l92 127l-26 -129zM487 524l506 707q-58 51 -127 51q-90 0 -168 -67.5t-98 -161.5zM506 227q58 -51 125 -51q89 0 168.5 68t99.5 162l113 526zM1012 932l26 133l66 -2z" />
<glyph unicode="&#xd9;" horiz-adv-x="1163" d="M227 406l207 970q7 39 44.5 66.5t82.5 27.5q43 0 68 -27t18 -67l-207 -970q-20 -94 29.5 -161t138.5 -67q91 0 170 67t99 161l206 970q7 40 43.5 67t81.5 27q43 0 68 -27t18 -67l-207 -970q-37 -172 -189 -295t-331 -123q-178 0 -277.5 123t-62.5 295zM699.5 1743 q-6.5 36 17.5 72q27 36 73 48.5t78 -5.5q193 -106 258 -140q32 -20 39 -58.5t-16 -70.5v2q-25 -37 -71 -49.5t-83 6.5q-36 19 -123.5 68t-132.5 72q-33 19 -39.5 55z" />
<glyph unicode="&#xda;" horiz-adv-x="1163" d="M227 406l207 970q7 39 44.5 66.5t82.5 27.5q43 0 68 -27t18 -67l-207 -970q-20 -94 29.5 -161t138.5 -67q91 0 170 67t99 161l206 970q7 40 43.5 67t81.5 27q43 0 68 -27t18 -67l-207 -970q-37 -172 -189 -295t-331 -123q-178 0 -277.5 123t-62.5 295zM670 1589 q-11 33 11 71t64 58l318 140q40 18 80.5 5t52.5 -48q9 -34 -14 -71t-62 -56l-317 -140q-43 -19 -83.5 -6t-49.5 49v-2z" />
<glyph unicode="&#xdb;" horiz-adv-x="1163" d="M227 406l207 970q7 39 44.5 66.5t82.5 27.5q43 0 68 -27t18 -67l-207 -970q-20 -94 29.5 -161t138.5 -67q91 0 170 67t99 161l206 970q7 40 43.5 67t81.5 27q43 0 68 -27t18 -67l-207 -970q-37 -172 -189 -295t-331 -123q-178 0 -277.5 123t-62.5 295zM631 1618 q0 40 51 84l217 160q27 20 72 20q37 0 71 -27l142 -153q23 -31 13.5 -68t-45.5 -67.5t-75 -30.5q-40 0 -61 25l-92 96q-14 -10 -58.5 -44t-70.5 -52q-36 -25 -78 -25q-40 0 -63 24.5t-23 57.5z" />
<glyph unicode="&#xdc;" horiz-adv-x="1163" d="M227 406l207 970q7 39 44.5 66.5t82.5 27.5q43 0 68 -27t18 -67l-207 -970q-20 -94 29.5 -161t138.5 -67q91 0 170 67t99 161l206 970q7 40 43.5 67t81.5 27q43 0 68 -27t18 -67l-207 -970q-37 -172 -189 -295t-331 -123q-178 0 -277.5 123t-62.5 295zM618 1688 q0 55 49.5 98t108.5 43q47 0 78 -31t31 -74q0 -53 -50.5 -95t-111.5 -42q-45 0 -75 30t-30 71zM1024 1688q0 55 49 98t107 43q48 0 79 -30.5t31 -74.5q0 -53 -51 -95t-113 -42q-43 0 -72.5 30t-29.5 71z" />
<glyph unicode="&#xdd;" horiz-adv-x="974" d="M328 1337q-6 45 32.5 89t92.5 44q32 0 55 -15t29 -40l129 -538l358 538q42 55 109 55q52 0 75 -42t-8 -91l-487 -731l-111 -522q-9 -40 -45 -68t-80 -28t-69.5 28t-16.5 68l111 520zM655 1595q-12 32 10 70.5t64 58.5l320 140q40 18 80.5 5t50.5 -48q10 -34 -12.5 -71 t-61.5 -56l-315 -140q-44 -19 -85.5 -6t-50.5 49v-2z" />
<glyph unicode="&#xde;" horiz-adv-x="1114" d="M168 82l276 1294q7 39 44.5 66.5t80.5 27.5q44 0 69.5 -27t18.5 -67l-51 -237h228q147 0 241 -95.5t94 -236.5q0 -123 -72.5 -232t-189.5 -173t-243 -64h-228l-55 -256q-8 -38 -44.5 -66t-80.5 -28q-43 0 -69 28t-19 66zM475 526h227q94 0 173 76.5t79 173.5 q0 74 -45.5 124t-115.5 50h-228z" />
<glyph unicode="&#xdf;" horiz-adv-x="1099" d="M156 94l204 973q34 159 165 269t292 110h31q139 0 231 -92t92 -226q0 -98 -52.5 -187.5t-141.5 -156.5q54 -49 83.5 -123.5t29.5 -156.5q0 -130 -78 -247.5t-204 -187t-261 -69.5h-6q-64 0 -80 50q-14 45 21 89q37 44 98 47h6q109 0 200 89.5t91 203.5q0 86 -52 145.5 t-133 59.5h-16q-64 0 -80 50q-14 45 21 89q37 44 98 47h16q86 0 156.5 70t70.5 160q0 67 -42.5 114.5t-106.5 47.5h-31q-73 0 -132 -57.5t-77 -137.5l-204 -973q-9 -40 -46 -67t-81 -27q-42 0 -66.5 27.5t-15.5 66.5z" />
<glyph unicode="&#xe0;" horiz-adv-x="954" d="M162 328l65 309q37 161 143 249.5t263 88.5q139 0 182 -84q12 57 73 77q55 18 96 -8q36 -23 26 -67l-174 -819q-14 -61 -75 -85q-56 -21 -98 7q-38 25 -30 78q-75 -89 -189 -92q-154 -5 -234 93.5t-48 252.5zM371 328q-16 -79 18.5 -118.5t104.5 -39.5q64 0 119.5 40.5 t68.5 104.5l70 330q17 91 -49 130q-58 35 -136 7q-85 -31 -121 -116l-10 -29zM516.5 1345.5q-6.5 35.5 18.5 69.5q26 35 70.5 47t76.5 -6q41 -22 127 -67.5t127 -67.5q32 -20 38.5 -57.5t-18.5 -69.5v2q-23 -36 -68.5 -48.5t-80.5 5.5q-25 14 -115.5 64t-136.5 75 q-32 18 -38.5 53.5z" />
<glyph unicode="&#xe1;" horiz-adv-x="954" d="M162 328l65 309q37 161 143 249.5t263 88.5q139 0 182 -84q12 57 73 77q55 18 96 -8q36 -23 26 -67l-174 -819q-14 -61 -75 -85q-56 -21 -98 7q-38 25 -30 78q-75 -89 -189 -92q-154 -5 -234 93.5t-48 252.5zM371 328q-16 -79 18.5 -118.5t104.5 -39.5q64 0 119.5 40.5 t68.5 104.5l70 330q17 91 -49 130q-58 35 -136 7q-85 -31 -121 -116l-10 -29zM518 1206q-12 30 10.5 67.5t61.5 59.5l289 129q41 18 80.5 5.5t50.5 -46.5q10 -33 -12 -69t-60 -54l-291 -133q-20 -10 -51 -10q-29 0 -51.5 14t-26.5 39v-2z" />
<glyph unicode="&#xe2;" horiz-adv-x="954" d="M162 328l65 309q37 161 143 249.5t263 88.5q139 0 182 -84q12 57 73 77q55 18 96 -8q36 -23 26 -67l-174 -819q-14 -61 -75 -85q-56 -21 -98 7q-38 25 -30 78q-75 -89 -189 -92q-154 -5 -234 93.5t-48 252.5zM371 328q-16 -79 18.5 -118.5t104.5 -39.5q64 0 119.5 40.5 t68.5 104.5l70 330q17 91 -49 130q-58 35 -136 7q-85 -31 -121 -116l-10 -29zM440.5 1146.5q-3.5 19.5 9.5 47.5t42 57l210 174q28 21 72 21q36 0 70 -27l131 -162q23 -31 16 -64.5t-39.5 -60t-70.5 -26.5q-41 0 -66 22l-84 119l-131 -119q-26 -19 -54 -27t-50 -4.5t-37 17 t-18.5 33z" />
<glyph unicode="&#xe3;" horiz-adv-x="954" d="M162 328l65 309q37 161 143 249.5t263 88.5q139 0 182 -84q12 57 73 77q55 18 96 -8q36 -23 26 -67l-174 -819q-14 -61 -75 -85q-56 -21 -98 7q-38 25 -30 78q-75 -89 -189 -92q-154 -5 -234 93.5t-48 252.5zM371 328q-16 -79 18.5 -118.5t104.5 -39.5q64 0 119.5 40.5 t68.5 104.5l70 330q17 91 -49 130q-58 35 -136 7q-85 -31 -121 -116l-10 -29zM457 1270q0 64 60 120t145 56q69 0 126 -45q61 -48 72 -53q11 29 35 53q31 31 76 31q39 0 59.5 -23.5t20.5 -58.5q0 -65 -61 -122t-144 -57q-66 0 -127 48l-74 55q-5 -21 -37 -53 q-33 -33 -71 -33q-39 0 -59.5 23.5t-20.5 58.5z" />
<glyph unicode="&#xe4;" horiz-adv-x="954" d="M162 328l65 309q37 161 143 249.5t263 88.5q139 0 182 -84q12 57 73 77q55 18 96 -8q36 -23 26 -67l-174 -819q-14 -61 -75 -85q-56 -21 -98 7q-38 25 -30 78q-75 -89 -189 -92q-154 -5 -234 93.5t-48 252.5zM371 328q-16 -79 18.5 -118.5t104.5 -39.5q64 0 119.5 40.5 t68.5 104.5l70 330q17 91 -49 130q-58 35 -136 7q-85 -31 -121 -116l-10 -29zM444 1268q-18 54 21 111q46 66 127 67q78 0 99 -60q19 -53 -18 -109q-48 -67 -132 -69q-78 0 -97 60zM825 1268q-18 54 21 111q46 66 127 67q78 0 99 -60q19 -53 -18 -109q-48 -67 -132 -69 q-78 0 -97 60z" />
<glyph unicode="&#xe5;" horiz-adv-x="954" d="M162 328l65 309q37 161 143 249.5t263 88.5q139 0 182 -84q12 57 73 77q55 18 96 -8q36 -23 26 -67l-174 -819q-14 -61 -75 -85q-56 -21 -98 7q-38 25 -30 78q-75 -89 -189 -92q-154 -5 -234 93.5t-48 252.5zM371 328q-16 -79 18.5 -118.5t104.5 -39.5q64 0 119.5 40.5 t68.5 104.5l70 330q17 91 -49 130q-58 35 -136 7q-85 -31 -121 -116l-10 -29zM537 1266q0 94 79 163.5t181 69.5q76 0 125 -48t49 -120q0 -94 -79.5 -163.5t-180.5 -69.5q-77 0 -125.5 47.5t-48.5 120.5zM692 1248q14 -21 45 -21q44 0 67 47q22 44 3 76q-12 20 -39 20 q-49 0 -74 -47q-23 -43 -2 -75z" />
<glyph unicode="&#xe6;" horiz-adv-x="1435" d="M125 242q0 91 63 182q90 127 277 158q217 21 240 30q19 8 24 31q9 78 -21 110.5t-108 32.5q-51 0 -84 -17t-45 -42q-30 -59 -97 -66q-58 -7 -88 29q-28 34 -5 84q40 87 134.5 142t223.5 55q84 0 143 -28t105 -89q52 58 126 87.5t150 29.5q151 0 236 -103t53 -252 l-29 -133q-9 -39 -45 -66.5t-78 -27.5h-413l-10 -47q-15 -69 20 -117.5t98 -48.5q104 0 156 72q42 60 106 52q52 -6 73 -48q27 -53 -27 -113q-66 -74 -157.5 -112.5t-191.5 -38.5q-164 0 -229 153q-89 -89 -161.5 -121t-155.5 -32q-157 0 -230 86q-53 62 -53 168zM336 264 q0 -40 12 -55q26 -33 117 -33q72 3 132 58.5t77 134.5l12 59q-83 -17 -158 -20q-2 0 -15.5 -1t-17.5 -1.5t-17 -2t-18.5 -2.5t-17.5 -4t-18 -6t-16.5 -7.5t-17 -9.5t-14.5 -12.5t-14 -15.5v2q-26 -37 -26 -84zM926 575h307l10 41q14 70 -20.5 120t-98.5 50q-62 0 -117.5 -49 t-70.5 -116z" />
<glyph unicode="&#xe7;" horiz-adv-x="901" d="M125 -334q0 59 33.5 89t77.5 30q73 0 73 -94q0 -51 68 -51q36 0 66 33t30 75q0 32 -21.5 55t-64.5 23q-36 0 -55 18t-18 44.5t18 54.5l33 57q-108 31 -166.5 128t-32.5 216l57 272q31 146 159.5 250.5t279.5 104.5q131 0 213.5 -83t82.5 -204q0 -43 -32 -78t-76 -41 q-46 -6 -75.5 16t-29.5 62q0 61 -33.5 102t-88.5 41q-62 0 -119 -50.5t-72 -119.5l-57 -272q-15 -69 20 -119.5t97 -50.5q56 0 108 40.5t76 100.5q15 39 54 61.5t83 16.5q39 -6 58 -37.5t6 -68.5q-35 -98 -123 -174.5t-191 -108.5q-5 -8 -15.5 -22t-19.5 -31 q55 -12 93 -54.5t38 -117.5q0 -122 -96 -209.5t-219 -87.5q-98 0 -158.5 50t-60.5 134z" />
<glyph unicode="&#xe8;" horiz-adv-x="915" d="M160 326l67 311q30 143 156.5 238.5t278.5 95.5q153 0 237.5 -96t52.5 -242l-30 -144q-10 -45 -43.5 -68.5t-79.5 -23.5h-414l-14 -71q-14 -73 27.5 -114t109.5 -44q86 -3 137 65q46 61 108 50q47 -8 65 -50q22 -52 -27 -106q-128 -139 -340 -139q-153 0 -238 96t-53 242 zM424 565h307l14 72q13 65 -22.5 107t-99.5 42t-118 -42t-67 -107zM487.5 1339.5q-6.5 35.5 18.5 69.5q26 35 70.5 47t76.5 -6q41 -21 127 -67.5t127 -67.5q33 -20 39 -57.5t-18 -69.5v2q-23 -36 -69 -48.5t-81 5.5q-25 13 -115.5 63.5t-136.5 75.5q-32 18 -38.5 53.5z" />
<glyph unicode="&#xe9;" horiz-adv-x="915" d="M160 326l67 311q30 143 156.5 238.5t278.5 95.5q153 0 237.5 -96t52.5 -242l-30 -144q-10 -45 -43.5 -68.5t-79.5 -23.5h-414l-14 -71q-14 -73 27.5 -114t109.5 -44q86 -3 137 65q46 61 108 50q47 -8 65 -50q22 -52 -27 -106q-128 -139 -340 -139q-153 0 -238 96t-53 242 zM424 565h307l14 72q13 65 -22.5 107t-99.5 42t-118 -42t-67 -107zM485 1182q-12 30 10.5 67.5t61.5 59.5l289 129q41 18 80.5 5.5t50.5 -46.5q10 -33 -12 -69t-60 -54l-291 -133q-22 -11 -51 -11t-51.5 14.5t-26.5 39.5v-2z" />
<glyph unicode="&#xea;" horiz-adv-x="915" d="M160 326l67 311q30 143 156.5 238.5t278.5 95.5q153 0 237.5 -96t52.5 -242l-30 -144q-10 -45 -43.5 -68.5t-79.5 -23.5h-414l-14 -71q-14 -73 27.5 -114t109.5 -44q86 -3 137 65q46 61 108 50q47 -8 65 -50q22 -52 -27 -106q-128 -139 -340 -139q-153 0 -238 96t-53 242 zM424 565h307l14 72q13 65 -22.5 107t-99.5 42t-118 -42t-67 -107zM446.5 1146.5q-3.5 19.5 9.5 47.5t42 57l211 174q28 21 71 21q36 0 70 -27l131 -162q23 -31 16 -64.5t-39.5 -60t-70.5 -26.5q-41 0 -66 22l-84 119l-131 -119q-26 -19 -54 -27t-50 -4.5t-37 17t-18.5 33z " />
<glyph unicode="&#xeb;" horiz-adv-x="915" d="M160 326l67 311q30 143 156.5 238.5t278.5 95.5q153 0 237.5 -96t52.5 -242l-30 -144q-10 -45 -43.5 -68.5t-79.5 -23.5h-414l-14 -71q-14 -73 27.5 -114t109.5 -44q86 -3 137 65q46 61 108 50q47 -8 65 -50q22 -52 -27 -106q-128 -139 -340 -139q-153 0 -238 96t-53 242 zM423 1244q-18 54 21 111q46 66 127 66q78 0 99 -60q19 -54 -19 -109q-46 -67 -131 -68q-78 0 -97 60zM424 565h307l14 72q13 65 -22.5 107t-99.5 42t-118 -42t-67 -107zM804 1244q-18 54 21 111q46 66 127 66q78 0 99 -60q19 -54 -19 -109q-46 -67 -131 -68q-78 0 -97 60z " />
<glyph unicode="&#xec;" horiz-adv-x="536" d="M178 82l168 795q9 40 46 67t81 27q42 0 66.5 -27.5t15.5 -66.5l-168 -795q-9 -39 -45 -66.5t-78 -27.5q-45 0 -70 27t-16 67zM300.5 1300.5q-6.5 32.5 16.5 63.5q27 36 69 50t75 -5l239 -129q28 -17 33.5 -53.5t-14.5 -65.5q-25 -35 -67 -47t-77 6l-237 131 q-31 17 -37.5 49.5z" />
<glyph unicode="&#xed;" horiz-adv-x="536" d="M184 82l168 795q9 40 46 67t81 27q42 0 66.5 -27.5t15.5 -66.5l-168 -795q-9 -39 -45 -66.5t-78 -27.5q-45 0 -70 27t-16 67zM283 1171q-10 32 10.5 68t58.5 55l301 131q38 16 79 5t48 -44v3q10 -34 -11.5 -71t-59.5 -52l-297 -133q-44 -18 -83.5 -6t-45.5 47v-3z" />
<glyph unicode="&#xee;" horiz-adv-x="536" d="M172 82l168 795q9 40 46 67t81 27q42 0 66.5 -27.5t15.5 -66.5l-168 -795q-9 -39 -45 -66.5t-78 -27.5q-45 0 -70 27t-16 67zM254.5 1214.5q8.5 37.5 42.5 61.5l201 149q28 21 69 21q36 0 68 -25l131 -145h-2q24 -28 16.5 -63t-41.5 -64t-71 -29q-42 0 -62 23l-84 90 q-24 -19 -66.5 -50t-54.5 -40q-33 -23 -71 -23q-42 0 -63 28.5t-12.5 66z" />
<glyph unicode="&#xef;" horiz-adv-x="536" d="M174 82l168 795q9 40 46 67t81 27q42 0 66.5 -27.5t15.5 -66.5l-168 -795q-9 -39 -45 -66.5t-78 -27.5q-45 0 -70 27t-16 67zM260 1292q0 51 45.5 90t102.5 39q44 0 74 -28t30 -68q0 -50 -48.5 -89.5t-105.5 -39.5q-43 0 -70.5 28.5t-27.5 67.5zM575 1292q0 51 46.5 90 t103.5 39q44 0 73 -28t29 -68q0 -50 -46.5 -89.5t-104.5 -39.5q-42 0 -71.5 28.5t-29.5 67.5z" />
<glyph unicode="&#xf0;" horiz-adv-x="923" d="M164 342l53 244q31 146 151.5 240t252.5 94q31 0 41 -2q-7 21 -24.5 61t-25.5 68q-27 -15 -47 -25h2q-39 -23 -72.5 -16.5t-45.5 36.5l2 -2q-11 26 2.5 57.5t46.5 49.5l63 33q-8 21 -26.5 66t-26.5 67q-8 33 7 67.5t52 55.5q49 21 90.5 11.5t53.5 -46.5l43 -119 q10 6 26.5 14.5t26.5 14.5h-4q36 23 69.5 16t47.5 -37q10 -24 -5.5 -55t-42.5 -47q-11 -6 -33 -18.5t-38 -20.5l98 -268h-2q42 -99 51 -170t-6 -125l-53 -244q-31 -148 -158 -251t-278 -103q-152 0 -237 103t-54 251zM373 342q-13 -69 22.5 -117.5t98.5 -48.5t119 48.5 t69 117.5l53 244q16 77 -21.5 119.5t-99.5 42.5q-64 0 -118 -42t-70 -120z" />
<glyph unicode="&#xf1;" horiz-adv-x="954" d="M129 80l172 809q10 51 68 76q58 23 100 0t31 -82q87 94 215 94q67 -1 120.5 -19.5t93.5 -58t51.5 -102.5t-5.5 -152l-121 -565q-7 -38 -43 -65t-78 -27q-44 0 -70 27t-18 65l121 563q13 66 -22 104.5t-101 38.5t-118.5 -39t-65.5 -104l-121 -563q-7 -38 -43 -65t-78 -27 q-44 0 -70 27t-18 65zM436 1270q0 64 60 120t145 56q70 0 127 -45q61 -48 72 -53q11 30 34 53q31 31 76 31q39 0 59.5 -23.5t20.5 -58.5q0 -65 -61 -122t-144 -57q-66 0 -127 48l-73 55q-5 -21 -37 -53q-33 -33 -72 -33t-59.5 23.5t-20.5 58.5z" />
<glyph unicode="&#xf2;" horiz-adv-x="933" d="M162 328l65 303q33 153 156 246.5t281 93.5q152 0 236.5 -97.5t53.5 -242.5l-65 -303q-24 -111 -91.5 -189.5t-155 -114.5t-187.5 -36q-154 0 -238.5 97t-54.5 243zM368.5 255q5.5 -29 26.5 -46.5t45.5 -25t55.5 -7.5q65 0 118 42.5t66 109.5l65 303q16 72 -20 113.5 t-100 41.5t-120 -45t-69 -110l-65 -303q-8 -44 -2.5 -73zM489.5 1341.5q-6.5 35.5 18.5 69.5q26 35 70.5 47t76.5 -6q41 -21 127 -67t127 -68q33 -20 39 -57.5t-18 -69.5v2q-23 -36 -69 -48.5t-81 5.5q-25 13 -115.5 63.5t-136.5 75.5q-32 18 -38.5 53.5z" />
<glyph unicode="&#xf3;" horiz-adv-x="933" d="M162 328l65 303q33 153 156 246.5t281 93.5q152 0 236.5 -97.5t53.5 -242.5l-65 -303q-24 -111 -91.5 -189.5t-155 -114.5t-187.5 -36q-154 0 -238.5 97t-54.5 243zM368.5 255q5.5 -29 26.5 -46.5t45.5 -25t55.5 -7.5q65 0 118 42.5t66 109.5l65 303q16 72 -20 113.5 t-100 41.5t-120 -45t-69 -110l-65 -303q-8 -44 -2.5 -73zM496 1182q-12 30 10 67.5t61 59.5l289 129q41 18 80.5 5.5t50.5 -46.5q10 -33 -12 -69t-60 -54l-290 -133q-22 -11 -52 -11q-29 0 -51 14.5t-26 39.5v-2z" />
<glyph unicode="&#xf4;" horiz-adv-x="933" d="M162 328l65 303q33 153 156 246.5t281 93.5q152 0 236.5 -97.5t53.5 -242.5l-65 -303q-24 -111 -91.5 -189.5t-155 -114.5t-187.5 -36q-154 0 -238.5 97t-54.5 243zM368.5 255q5.5 -29 26.5 -46.5t45.5 -25t55.5 -7.5q65 0 118 42.5t66 109.5l65 303q16 72 -20 113.5 t-100 41.5t-120 -45t-69 -110l-65 -303q-8 -44 -2.5 -73zM442.5 1155.5q-3.5 19.5 9.5 47.5t42 57l211 174q27 20 71 20q36 0 70 -27l131 -161q23 -31 16 -65t-39.5 -60.5t-70.5 -26.5q-40 0 -66 23l-84 118l-131 -118q-26 -19 -54 -27t-50 -4.5t-37 17t-18.5 33z" />
<glyph unicode="&#xf5;" horiz-adv-x="933" d="M162 328l65 303q33 153 156 246.5t281 93.5q152 0 236.5 -97.5t53.5 -242.5l-65 -303q-24 -111 -91.5 -189.5t-155 -114.5t-187.5 -36q-154 0 -238.5 97t-54.5 243zM368.5 255q5.5 -29 26.5 -46.5t45.5 -25t55.5 -7.5q65 0 118 42.5t66 109.5l65 303q16 72 -20 113.5 t-100 41.5t-120 -45t-69 -110l-65 -303q-8 -44 -2.5 -73zM446 1270q0 64 60 120t145 56q70 0 127 -45q61 -48 72 -53q11 29 35 53q31 31 76 31q39 0 59 -23.5t20 -58.5q0 -65 -60.5 -122t-143.5 -57q-66 0 -127 48l-74 55q-5 -21 -37 -53q-33 -33 -72 -33t-59.5 23.5 t-20.5 58.5z" />
<glyph unicode="&#xf6;" horiz-adv-x="933" d="M162 328l65 303q33 153 156 246.5t281 93.5q152 0 236.5 -97.5t53.5 -242.5l-65 -303q-24 -111 -91.5 -189.5t-155 -114.5t-187.5 -36q-154 0 -238.5 97t-54.5 243zM368.5 255q5.5 -29 26.5 -46.5t45.5 -25t55.5 -7.5q65 0 118 42.5t66 109.5l65 303q16 72 -20 113.5 t-100 41.5t-120 -45t-69 -110l-65 -303q-8 -44 -2.5 -73zM433 1268q-17 54 21 111q47 66 128 67q78 0 99 -60q18 -53 -19 -109q-47 -68 -132 -69q-78 0 -97 60zM814 1268q-17 54 21 111q47 66 128 67q78 0 99 -60q18 -53 -19 -109q-47 -68 -132 -69q-78 0 -97 60z" />
<glyph unicode="&#xf7;" horiz-adv-x="841" d="M195 627q0 44 38.5 76t88.5 32h505q37 0 61.5 -23t24.5 -57q0 -42 -38.5 -74t-88.5 -32h-505q-36 0 -61 22.5t-25 55.5zM346 324q0 62 53.5 108.5t120.5 46.5q52 0 85.5 -32t33.5 -80q0 -62 -53.5 -107t-120.5 -45q-52 0 -85.5 31.5t-33.5 77.5zM471 918q0 60 55 106.5 t121 46.5q52 0 85.5 -32.5t33.5 -80.5q0 -60 -54.5 -105.5t-121.5 -45.5q-52 0 -85.5 32t-33.5 79z" />
<glyph unicode="&#xf8;" horiz-adv-x="933" d="M122.5 -59.5q-19.5 34.5 8.5 75.5l66 93q-62 90 -35 219l65 303q31 145 157.5 242.5t279.5 97.5q75 0 141 -29l49 68q30 43 86 43q43 0 62.5 -35t-7.5 -76l-71 -100q53 -92 30 -211l-65 -303q-32 -147 -157 -243.5t-277 -96.5q-69 0 -136 24l-47 -63q-13 -18 -38.5 -30.5 t-49.5 -12.5q-42 0 -61.5 34.5zM377 354l303 420q-24 12 -55 12q-64 0 -120 -45t-69 -110zM442 184q21 -8 52 -8q65 0 118 42t68 110l55 256z" />
<glyph unicode="&#xf9;" horiz-adv-x="944" d="M154.5 161.5q-11.5 62.5 5.5 151.5l119 566q9 38 45 65t77 27q44 0 69 -27t17 -65l-118 -564q-13 -66 22 -104.5t101 -38.5t118.5 39t65.5 104l119 564q7 38 44 65t79 27q44 0 69 -27t17 -65l-173 -809q-9 -51 -67 -76q-57 -24 -99 0q-41 23 -30 82q-87 -94 -217 -94 q-67 1 -120 19t-92.5 58t-51 102.5zM465 1337.5q-7 35.5 18 69.5q26 35 71 47t77 -6q41 -22 127 -68t127 -67q32 -20 38.5 -57.5t-18.5 -69.5v2q-23 -36 -68.5 -48.5t-80.5 5.5q-25 13 -115.5 63.5t-136.5 75.5q-32 18 -39 53.5z" />
<glyph unicode="&#xfa;" horiz-adv-x="944" d="M154.5 161.5q-11.5 62.5 5.5 151.5l119 566q9 38 45 65t77 27q44 0 69 -27t17 -65l-118 -564q-13 -66 22 -104.5t101 -38.5t118.5 39t65.5 104l119 564q7 38 44 65t79 27q44 0 69 -27t17 -65l-173 -809q-9 -51 -67 -76q-57 -24 -99 0q-41 23 -30 82q-87 -94 -217 -94 q-67 1 -120 19t-92.5 58t-51 102.5zM500 1182q-12 30 10 67.5t61 59.5l289 129q41 18 80.5 5.5t50.5 -46.5q10 -33 -11.5 -69t-59.5 -54l-291 -133q-22 -11 -51 -11t-51.5 14.5t-26.5 39.5v-2z" />
<glyph unicode="&#xfb;" horiz-adv-x="944" d="M154.5 161.5q-11.5 62.5 5.5 151.5l119 566q9 38 45 65t77 27q44 0 69 -27t17 -65l-118 -564q-13 -66 22 -104.5t101 -38.5t118.5 39t65.5 104l119 564q7 38 44 65t79 27q44 0 69 -27t17 -65l-173 -809q-9 -51 -67 -76q-57 -24 -99 0q-41 23 -30 82q-87 -94 -217 -94 q-67 1 -120 19t-92.5 58t-51 102.5zM444.5 1146.5q-3.5 19.5 9.5 47.5t42 57l211 174q28 21 71 21q36 0 70 -27l131 -162q23 -31 16 -64.5t-39.5 -60t-70.5 -26.5q-41 0 -66 22l-84 119l-131 -119q-26 -19 -54 -27t-50 -4.5t-37 17t-18.5 33z" />
<glyph unicode="&#xfc;" horiz-adv-x="944" d="M154.5 161.5q-11.5 62.5 5.5 151.5l119 566q9 38 45 65t77 27q44 0 69 -27t17 -65l-118 -564q-13 -66 22 -104.5t101 -38.5t118.5 39t65.5 104l119 564q7 38 44 65t79 27q44 0 69 -27t17 -65l-173 -809q-9 -51 -67 -76q-57 -24 -99 0q-41 23 -30 82q-87 -94 -217 -94 q-67 1 -120 19t-92.5 58t-51 102.5zM438 1268q-18 54 21 111q46 66 127 67q78 0 99 -60q19 -53 -18 -109q-48 -67 -132 -69q-78 0 -97 60zM818 1268q-17 54 21 111q47 66 128 67q78 0 99 -60q18 -53 -19 -109q-47 -68 -132 -69q-78 0 -97 60z" />
<glyph unicode="&#xfd;" horiz-adv-x="966" d="M45 -244q0 68 40 107t93 39q78 0 78 -117q0 -98 135 -98q153 0 184 145l41 193q-75 -37 -161 -37q-151 0 -236 102.5t-53 249.5l113 539q9 38 46 65t81 27q43 0 67.5 -27t15.5 -65l-112 -539q-15 -69 19.5 -117.5t97.5 -48.5q59 0 93 12.5t77 63.5l133 629q9 38 45.5 65 t79.5 27q44 0 68.5 -27t15.5 -65l-222 -1047q-32 -153 -152 -236t-278 -83q-138 0 -223.5 64t-85.5 179zM520 1202q-12 30 10.5 67.5t61.5 59.5l289 129q41 18 80.5 5.5t50.5 -46.5q10 -33 -12 -69t-60 -54l-291 -133q-20 -10 -51 -10q-29 0 -51.5 14t-26.5 39v-2z" />
<glyph unicode="&#xfe;" horiz-adv-x="1034" d="M80 -342l360 1698q7 37 44.5 63.5t80.5 26.5t67.5 -26.5t16.5 -63.5l-78 -373q81 43 183 43q157 0 245 -107.5t56 -261.5l-64 -301q-34 -153 -168 -260.5t-291 -107.5q-96 0 -163 41l-80 -371q-8 -37 -44 -63.5t-79 -26.5t-68.5 26.5t-17.5 63.5zM438 356 q-19 -88 20 -135t115 -47q69 0 130.5 54t78.5 128l64 301q15 75 -23.5 129t-107.5 54q-76 0 -135 -47t-78 -136z" />
<glyph unicode="&#xff;" horiz-adv-x="966" d="M45 -244q0 68 40 107t93 39q78 0 78 -117q0 -98 135 -98q153 0 184 145l41 193q-75 -37 -161 -37q-151 0 -236 102.5t-53 249.5l113 539q9 38 46 65t81 27q43 0 67.5 -27t15.5 -65l-112 -539q-15 -69 19.5 -117.5t97.5 -48.5q59 0 93 12.5t77 63.5l133 629q9 38 45.5 65 t79.5 27q44 0 68.5 -27t15.5 -65l-222 -1047q-32 -153 -152 -236t-278 -83q-138 0 -223.5 64t-85.5 179zM450 1268q-18 54 21 111q46 66 127 67q78 0 99 -60q19 -53 -18 -109q-48 -67 -132 -69q-78 0 -97 60zM831 1268q-18 54 21 111q46 66 127 67q78 0 99 -60 q19 -53 -18 -109q-48 -67 -132 -69q-78 0 -97 60z" />
<glyph unicode="&#x152;" horiz-adv-x="1609" d="M199 381l147 698q36 170 184 279.5t330 109.5q125 0 207 -69q40 59 117 59h563q38 0 63 -23t25 -57q0 -44 -39 -76t-90 -32h-459l-84 -393h402q39 0 64.5 -23.5t25.5 -56.5q0 -44 -39.5 -76.5t-89.5 -32.5h-402l-106 -500h465q38 0 63 -22.5t25 -56.5q0 -43 -40.5 -76 t-88.5 -33h-570q-34 0 -58 16t-32 41q-118 -71 -237 -71q-181 0 -281.5 112.5t-64.5 282.5zM412 381q-20 -91 31 -148t143 -57q91 0 167.5 64.5t96.5 156.5l139 660q20 95 -29.5 159t-140.5 64q-93 0 -166.5 -54.5t-93.5 -146.5z" />
<glyph unicode="&#x153;" horiz-adv-x="1456" d="M174 342l57 279q31 145 160 247.5t279 102.5q78 0 140.5 -36t88.5 -99q55 64 133.5 99.5t153.5 35.5q151 0 234.5 -103t52.5 -252l-27 -127q-9 -39 -45 -66.5t-78 -27.5h-412l-12 -53q-15 -69 19.5 -120.5t97.5 -51.5q102 0 153 74q40 52 97.5 49t76 -45.5t-17.5 -100.5 q-61 -81 -152 -121t-196 -40q-167 0 -227 151q-112 -149 -289 -149q-150 0 -234 103.5t-53 250.5zM381 342q-15 -69 20.5 -117.5t98.5 -48.5q65 0 120 48.5t68 117.5l60 279q14 67 -19.5 116t-97.5 49q-63 0 -120 -49.5t-71 -115.5zM946 565h307l11 56q14 67 -19.5 116 t-97.5 49q-63 0 -119 -49.5t-70 -115.5z" />
<glyph unicode="&#x178;" horiz-adv-x="974" d="M328 1337q-6 45 32.5 89t92.5 44q32 0 54 -15t30 -40l129 -538l358 538q38 55 109 55q52 0 75 -42t-8 -91l-487 -731l-111 -522q-9 -40 -45 -68t-80 -28t-69.5 28t-16.5 68l111 520zM535 1735q0 57 45.5 98t107.5 41q47 0 78 -29.5t31 -72.5q0 -55 -48.5 -95.5 t-109.5 -40.5q-46 0 -75 28.5t-29 70.5zM913 1735q0 56 46.5 97.5t105.5 41.5q47 0 78 -29.5t31 -72.5q0 -55 -48.5 -95.5t-109.5 -40.5q-45 0 -74 28.5t-29 70.5z" />
<glyph unicode="&#x2c6;" horiz-adv-x="847" d="M385 1146.5q-4 19.5 9 47.5t42 57l211 174q28 21 72 21q35 0 69 -27l132 -162q23 -31 15.5 -64.5t-40 -60t-70.5 -26.5q-40 0 -65 22l-84 119l-131 -119q-26 -19 -54 -27t-50 -4.5t-37 17t-19 33z" />
<glyph unicode="&#x2dc;" horiz-adv-x="718" d="M332 1270q0 64 60 120t145 56q70 0 127 -45q63 -49 71 -53q11 29 35 53q31 31 76 31q39 0 59.5 -23.5t20.5 -58.5q0 -65 -61 -122t-144 -57q-66 0 -127 48l-74 55q-5 -21 -37 -53q-33 -33 -71 -33q-39 0 -59.5 23.5t-20.5 58.5z" />
<glyph unicode="&#x2000;" horiz-adv-x="973" />
<glyph unicode="&#x2001;" horiz-adv-x="1946" />
<glyph unicode="&#x2002;" horiz-adv-x="973" />
<glyph unicode="&#x2003;" horiz-adv-x="1946" />
<glyph unicode="&#x2004;" horiz-adv-x="648" />
<glyph unicode="&#x2005;" horiz-adv-x="486" />
<glyph unicode="&#x2006;" horiz-adv-x="324" />
<glyph unicode="&#x2007;" horiz-adv-x="324" />
<glyph unicode="&#x2008;" horiz-adv-x="243" />
<glyph unicode="&#x2009;" horiz-adv-x="389" />
<glyph unicode="&#x200a;" horiz-adv-x="108" />
<glyph unicode="&#x2010;" horiz-adv-x="784" d="M205 612q-12 43 21 82q31 36 83 39h443q58 0 71 -47q12 -43 -22 -82q-32 -37 -84 -37h-443q-56 0 -69 45z" />
<glyph unicode="&#x2011;" horiz-adv-x="784" d="M205 612q-12 43 21 82q31 36 83 39h443q58 0 71 -47q12 -43 -22 -82q-32 -37 -84 -37h-443q-56 0 -69 45z" />
<glyph unicode="&#x2012;" horiz-adv-x="784" d="M205 612q-12 43 21 82q31 36 83 39h443q58 0 71 -47q12 -43 -22 -82q-32 -37 -84 -37h-443q-56 0 -69 45z" />
<glyph unicode="&#x2013;" horiz-adv-x="1091" d="M188 550q-14 46 22 89q36 42 97 45h766q64 0 79 -50q13 -46 -23 -89q-35 -42 -95 -45h-766q-65 0 -80 50z" />
<glyph unicode="&#x2014;" horiz-adv-x="1525" d="M188 594q0 42 38.5 74t86.5 32h1157q38 0 63.5 -22.5t25.5 -54.5q0 -43 -38.5 -75t-88.5 -32h-1158q-36 0 -61 22.5t-25 55.5z" />
<glyph unicode="&#x2018;" horiz-adv-x="399" d="M264 1053q0 42 25 75l-4 -6l10 13l-2 -2q8 15 160 256v-3q15 28 42.5 44t61.5 16q50 0 71.5 -40t-5.5 -89q-91 -149 -97 -160q21 -34 21 -65q0 -58 -51 -103t-117 -45q-52 0 -83.5 31t-31.5 78z" />
<glyph unicode="&#x2019;" horiz-adv-x="399" d="M269.5 984q-22.5 40 4.5 87q15 26 49 80.5t50 81.5q-19 25 -19 63q0 60 49 105t115 45q53 0 85 -31t32 -78q0 -41 -27 -75l2 4q0 -1 -1 -2.5t-2.5 -4t-2.5 -4.5l2 2q-1 -2 -12 -20.5t-26 -42.5l-47.5 -76t-74.5 -117l3 3q-37 -60 -109 -60q-48 0 -70.5 40z" />
<glyph unicode="&#x201a;" horiz-adv-x="542" d="M78 -243.5q-21 39.5 6 89.5q16 26 48.5 80t47.5 80q-18 24 -18 64q0 60 50 105.5t116 45.5q51 0 82.5 -31.5t31.5 -78.5q0 -40 -30 -82l2 2q-3 -4 -17 -27.5t-51.5 -84.5t-89.5 -142q-37 -60 -109 -60q-48 0 -69 39.5z" />
<glyph unicode="&#x201c;" horiz-adv-x="743" d="M276 1053q0 33 27 75l-4 -6l10 13l-2 -2q15 30 158 256v-3q37 60 106 60q49 0 70.5 -40t-4.5 -89q-67 -110 -98 -160q20 -27 20 -63q0 -60 -50 -105t-116 -45q-52 0 -84.5 31t-32.5 78zM627 1053q0 36 24 75l-4 -6l10 13l-2 -2q8 15 160 256v-3q15 27 43.5 43.5 t61.5 16.5q51 0 73 -40t-6 -89q-15 -27 -49.5 -81.5t-48.5 -78.5q20 -32 20 -65q0 -58 -51 -103t-117 -45q-51 0 -82.5 31t-31.5 78z" />
<glyph unicode="&#x201d;" horiz-adv-x="763" d="M283 984q-21 40 6 87q16 26 49.5 81t48.5 81q-20 27 -20 65q0 59 49.5 103.5t115.5 44.5q52 0 84.5 -31t32.5 -78q0 -43 -26 -75l2 4q0 -1 -1.5 -3l-3 -4t-2.5 -4l3 2q-1 -2 -12 -20.5t-26 -42.5l-47.5 -76t-74.5 -117l2 3q-37 -60 -109 -60q-50 0 -71 40zM624 984 q-22 40 5 87q16 26 49.5 81t48.5 81q-18 24 -18 63q0 60 48.5 105t114.5 45q53 0 85 -31t32 -78q0 -43 -26 -75l2 4q0 -1 -1.5 -3l-3 -4t-2.5 -4l3 2q-1 -2 -12 -20.5t-26 -42.5l-47.5 -76t-74.5 -117l2 3q-37 -60 -109 -60q-48 0 -70 40z" />
<glyph unicode="&#x201e;" horiz-adv-x="929" d="M81.5 -243.5q-21.5 39.5 4.5 89.5q15 26 48.5 80t49.5 80q-18 24 -18 64q0 60 50 105.5t116 45.5q51 0 82.5 -31.5t31.5 -78.5q0 -40 -26 -76l2 4q0 -1 -1 -2.5t-2.5 -3.5t-2.5 -4l2 2q-3 -4 -17 -27.5t-51.5 -84.5t-89.5 -142q-37 -60 -108 -60q-49 0 -70.5 39.5z M445 -243.5q-21 39.5 6 89.5q11 19 45.5 74.5t50.5 85.5q-19 30 -19 66q0 59 51 104t117 45q51 0 82 -31.5t31 -78.5q0 -35 -25 -76l2 4q0 -1 -1 -2.5t-2.5 -3.5t-2.5 -4l2 2q-3 -5 -17 -27.5t-52 -84t-90 -142.5q-15 -27 -45 -43.5t-64 -16.5q-48 0 -69 39.5z" />
<glyph unicode="&#x2022;" horiz-adv-x="649" d="M229 639q0 102 83.5 177t191.5 75q82 0 135 -51.5t53 -128.5q0 -101 -84.5 -175.5t-193.5 -74.5q-82 0 -133.5 51t-51.5 127z" />
<glyph unicode="&#x2026;" horiz-adv-x="1206" d="M59 98q0 61 53 108.5t119 47.5q53 0 88 -33.5t35 -81.5q0 -61 -54.5 -106t-123.5 -45q-52 0 -84.5 31.5t-32.5 78.5zM473 98q0 61 53 108.5t119 47.5q52 0 87.5 -33.5t35.5 -81.5q0 -60 -55.5 -105.5t-122.5 -45.5q-52 0 -84.5 31.5t-32.5 78.5zM887 98q0 61 53.5 108.5 t118.5 47.5q53 0 88 -33.5t35 -81.5q0 -60 -55.5 -105.5t-122.5 -45.5q-52 0 -84.5 31.5t-32.5 78.5z" />
<glyph unicode="&#x202f;" horiz-adv-x="389" />
<glyph unicode="&#x2039;" horiz-adv-x="679" d="M197 666q0 18 14 40t35 37l379 299q39 27 75 27q43 0 64.5 -29.5t14 -68t-39.5 -64.5l-293 -231q31 -39 96.5 -116t96.5 -116q34 -43 -6 -102t-98 -59q-37 0 -68 24l-250 301q-20 23 -20 58z" />
<glyph unicode="&#x203a;" horiz-adv-x="663" d="M164.5 377q5.5 39 40.5 67l291 232l-193 231q-18 20 -15 47.5t17 53t42.5 43.5t60.5 18q41 0 65 -27l252 -299q20 -23 20 -57q0 -18 -14.5 -40t-34.5 -38l-379 -301q-39 -24 -77 -24q-37 0 -59 27.5t-16.5 66.5z" />
<glyph unicode="&#x205f;" horiz-adv-x="486" />
<glyph unicode="&#x20ac;" horiz-adv-x="1212" d="M204 525q-16 45 19 86t99 44h77l27 121h-78q-69 0 -83 48q-14 44 24 86q37 41 98 44h78l16 80q37 172 186 292t326 120q102 0 183.5 -40t127 -117t37.5 -177q-10 -34 -43 -65t-71 -35q-45 -4 -71 22t-26 76q0 73 -49.5 112.5t-128.5 39.5q-88 0 -165 -67.5t-97 -160.5 l-16 -80h215q63 0 79 -48q15 -45 -20 -86q-36 -41 -98 -44h-215l-27 -121h215q67 0 82 -48q13 -44 -24 -86q-36 -41 -95 -44h-215l-16 -78q-20 -92 29.5 -158.5t138.5 -66.5q80 0 150.5 52t99.5 136q14 38 52.5 63t82.5 21q40 -3 61 -33t9 -69q-47 -151 -190 -253.5 t-306 -102.5q-177 0 -275 120.5t-61 290.5l16 78h-77q-64 0 -81 48z" />
<glyph unicode="&#x2122;" horiz-adv-x="1187" d="M305 1356q0 37 33.5 63.5t75.5 26.5h311q32 0 53 -18.5t21 -47.5q0 -36 -32.5 -62t-74.5 -26h-67l-101 -471q-6 -32 -36.5 -54t-67.5 -22t-58.5 22t-15.5 54l100 471h-65q-34 0 -55 18t-21 46zM733 821l117 547q6 27 30 48.5t56 27.5q34 6 60.5 -6.5t29.5 -38.5l49 -297 q30 49 89 151t85 144q18 29 49.5 42t61.5 5q30 -6 45.5 -27.5t9.5 -48.5l-117 -547q-6 -32 -36.5 -54t-67.5 -22q-35 0 -54.5 22t-13.5 54l41 191q-41 -94 -74.5 -131t-70.5 -37q-38 0 -53 35.5t-25 128.5l-39 -187q-8 -33 -36 -54.5t-64 -21.5q-37 0 -57.5 22t-14.5 54z " />
<glyph unicode="&#xe000;" d="M0 0v973h973v-973h-973z" />
</font>
</defs>
</svg>
